<?xml version="1.0" encoding="UTF-8"?>
<svg width="32px" height="22px" viewBox="0 0 32 22" version="1.1" xmlns="http://www.w3.org/2000/svg" xmlns:xlink="http://www.w3.org/1999/xlink">
    <!-- Generator: Sketch 50.2 (55047) - http://www.bohemiancoding.com/sketch -->
    <title>Israel@2x</title>
    <desc>Created with Sketch.</desc>
    <defs></defs>
    <g id="FInalll" stroke="none" stroke-width="1" fill="none" fill-rule="evenodd">
        <g id="Artboard" transform="translate(-234.000000, -104.000000)" fill-rule="nonzero">
            <g id="Israel@2x" transform="translate(234.000000, 104.000000)">
                <rect id="Rounded_Rectangle_7_copy-26" fill="#FFFFFF" x="0.347042254" y="0.114583333" width="31.5492958" height="21.5416667" rx="6.36"></rect>
                <path d="M20.583662,8.70833333 C20.6422361,8.64176349 20.6520118,8.54441514 20.6078786,8.46717928 C20.5637454,8.38994347 20.4757359,8.35037802 20.3898592,8.36916667 L18.2264789,8.36916667 C17.9844478,8.35707075 17.7615093,8.23187145 17.6225352,8.03 L16.531831,6.19666667 C16.5003576,6.11043964 16.4194586,6.05322341 16.3290141,6.05322341 C16.2385696,6.05322341 16.1576705,6.11043964 16.1261972,6.19666667 L15.0670423,8.0025 C14.9314215,8.20647653 14.7094228,8.33378278 14.4676056,8.34625 L12.3042254,8.34625 C12.2175534,8.32461529 12.1271594,8.36313706 12.0815486,8.44114471 C12.0359377,8.51915231 12.0458293,8.61831263 12.1059155,8.68541667 L13.2011268,10.51875 C13.3125037,10.7323004 13.3125037,10.9881162 13.2011268,11.2016667 L12.1059155,13.035 C12.0458293,13.102104 12.0359377,13.2012644 12.0815486,13.279272 C12.1271594,13.3572796 12.2175534,13.3958014 12.3042254,13.3741667 L14.4630986,13.3741667 C14.7039035,13.3862774 14.925459,13.5116355 15.0625352,13.7133333 L16.1216901,15.5191667 C16.1547401,15.6022885 16.2340864,15.6566985 16.3222535,15.6566985 C16.4104206,15.6566985 16.489767,15.6022885 16.5228169,15.5191667 L17.5774648,13.75 C17.714541,13.5483022 17.9360965,13.4229441 18.1769014,13.4108333 L20.376338,13.4108333 C20.4622148,13.429622 20.5502242,13.3900565 20.5943575,13.3128207 C20.6384907,13.2355849 20.628715,13.1382365 20.5701408,13.0716667 L19.4749296,11.2383333 C19.3627537,11.0249858 19.3627537,10.7687642 19.4749296,10.5554167 L20.583662,8.70833333 Z M16.2569014,8.21791667 C16.2974648,8.13541667 16.3740845,8.13541667 16.423662,8.21791667 C16.4732394,8.30041667 16.423662,8.36916667 16.3470423,8.36916667 C16.3080534,8.37940482 16.2669631,8.36343535 16.2446266,8.3293634 C16.2222901,8.29529145 16.2235983,8.25057787 16.2478873,8.21791667 L16.2569014,8.21791667 Z M14.0484507,12.30625 C13.9447887,12.30625 13.9042254,12.2375 13.9538028,12.1595833 C13.9714881,12.1242292 14.0071918,12.1019632 14.0461972,12.1019632 C14.0852026,12.1019632 14.1209063,12.1242292 14.1385915,12.1595833 C14.188169,12.2420833 14.1385915,12.30625 14.0439437,12.30625 L14.0484507,12.30625 Z M14.1430986,9.62958333 C14.126419,9.66755437 14.0893458,9.69200453 14.0484507,9.69200453 C14.0075556,9.69200453 13.9704824,9.66755437 13.9538028,9.62958333 C13.9042254,9.54708333 13.9538028,9.48291667 14.0484507,9.48291667 C14.1430986,9.48291667 14.188169,9.55166667 14.1385915,9.62958333 L14.1430986,9.62958333 Z M16.428169,13.57125 C16.3785915,13.65375 16.3019718,13.65375 16.2614085,13.57125 C16.239428,13.5399429 16.2378893,13.4983331 16.2574953,13.4654355 C16.2771014,13.4325379 16.3140865,13.4146711 16.3515493,13.42 C16.4461972,13.42 16.4777465,13.4841667 16.428169,13.5666667 L16.428169,13.57125 Z M17.3566197,11.9670833 C17.2209989,12.1710599 16.9990002,12.2983661 16.7571831,12.3108333 L15.9459155,12.3108333 C15.7042638,12.2973868 15.481868,12.1724922 15.3419718,11.9716667 L14.8912676,11.23375 C14.7806914,11.0216194 14.7806914,10.7675473 14.8912676,10.5554167 L15.3149296,9.82666667 C15.4505504,9.62269014 15.672549,9.49538388 15.9143662,9.48291667 L16.7616901,9.48291667 C17.0035073,9.49538388 17.225506,9.62269014 17.3611268,9.82666667 L17.7847887,10.5554167 C17.8938398,10.7695494 17.8938398,11.0242006 17.7847887,11.2383333 L17.3566197,11.9670833 Z M18.6546479,12.3108333 C18.5509859,12.3108333 18.5104225,12.2420833 18.56,12.1641667 C18.5776853,12.1288125 18.6133889,12.1065465 18.6523944,12.1065465 C18.6913998,12.1065465 18.7271035,12.1288125 18.7447887,12.1641667 C18.7943662,12.2420833 18.7447887,12.3108333 18.6456338,12.3108333 L18.6546479,12.3108333 Z M18.7492958,9.63416667 C18.7316105,9.66952085 18.6959068,9.69178682 18.6569014,9.69178682 C18.617896,9.69178682 18.5821923,9.66952085 18.564507,9.63416667 C18.5149296,9.55166667 18.564507,9.4875 18.6591549,9.4875 C18.7538028,9.4875 18.8033803,9.55166667 18.7492958,9.63416667 Z" id="Shape" fill="#4758A9"></path>
                <path d="M29.0253521,0.114583333 L3.21352113,0.114583333 C1.69340668,0.114535487 0.437593509,1.32121621 0.351549296,2.86458333 L31.9008451,2.86458333 C31.8145218,1.31590087 30.5506836,0.107219481 29.0253521,0.114583333 Z" id="Shape" fill="#4758A9"></path>
                <path d="M3.21352113,21.65625 L29.0253521,21.65625 C30.5454665,21.6562978 31.8012797,20.4496171 31.8873239,18.90625 L0.338028169,18.90625 C0.424351474,20.4549324 1.6881896,21.6636139 3.21352113,21.65625 Z" id="Shape" fill="#4758A9"></path>
            </g>
        </g>
    </g>
</svg>