<?xml version="1.0" encoding="UTF-8"?>
<svg width="32px" height="22px" viewBox="0 0 32 22" version="1.1" xmlns="http://www.w3.org/2000/svg" xmlns:xlink="http://www.w3.org/1999/xlink">
    <!-- Generator: Sketch 50 (54983) - http://www.bohemiancoding.com/sketch -->
    <title>Mexico@2x</title>
    <desc>Created with Sketch.</desc>
    <defs></defs>
    <g id="FInalll" stroke="none" stroke-width="1" fill="none" fill-rule="evenodd">
        <g id="Artboard" transform="translate(-196.000000, -104.000000)" fill-rule="nonzero">
            <g id="Mexico@2x" transform="translate(196.000000, 104.000000)">
                <g id="Mali-4">
                    <g id="France-9">
                        <g id="Belgium-13">
                            <g id="Bahamas-16">
                                <path d="M2.93408451,0.421924883 C1.35097194,0.421924883 0.0676056338,1.68657543 0.0676056338,3.24660094 L0.0676056338,18.4669859 C0.0676056338,20.0270114 1.35097194,21.291662 2.93408451,21.291662 L10.5960563,21.291662 C10.5960563,14.3336025 10.5960563,7.37554305 10.5960563,0.417483568 L2.93408451,0.421924883 Z" id="Shape" fill="#57A863"></path>
                                <path d="M10.5870423,0.421924883 C10.5870423,7.37998437 10.5870423,14.3380438 10.5870423,21.2961033 L21.1109859,21.2961033 C21.1109859,14.3380438 21.1109859,7.37998437 21.1109859,0.421924883 L10.5870423,0.421924883 Z" id="Shape" fill="#FFFFFF"></path>
                                <path d="M28.7459155,0.421924883 L21.1064789,0.421924883 C21.1064789,7.37998437 21.1064789,14.3380438 21.1064789,21.2961033 L28.7459155,21.2961033 C30.3290281,21.2961033 31.6123944,20.0314527 31.6123944,18.4714272 L31.6123944,3.25104225 C31.6135909,2.50112237 31.3121161,1.78151345 30.7744173,1.25082297 C30.2367185,0.720132489 29.5069345,0.421923956 28.7459155,0.421924883 Z" id="Shape" fill="#ED5565"></path>
                            </g>
                        </g>
                    </g>
                </g>
                <g id="coa" transform="translate(11.267606, 7.106103)">
                    <g id="branches" transform="translate(0.000000, 3.108920)" fill="#57A863">
                        <path d="M8.69859155,1.496723 C8.813147,1.40907481 8.8864087,1.27912687 8.90140845,1.13697653 C8.91558603,1.00352169 8.87682488,0.869835994 8.79323944,0.763906103 C8.79179488,0.700247383 8.75316043,0.643140849 8.69408451,0.617342723 L8.64450704,0.617342723 C8.62632442,0.573731688 8.6036718,0.532063466 8.57690141,0.492985915 C8.54438914,0.456658108 8.4976046,0.435846794 8.4484507,0.435846794 C8.39929681,0.435846794 8.35251227,0.456658108 8.32,0.492985915 C8.27279139,0.542669862 8.23192478,0.597855554 8.19830986,0.657314554 C8.15510504,0.625568042 8.10338434,0.607034787 8.04957746,0.604018779 C8.00654594,0.600477888 7.96399554,0.614992073 7.93239437,0.64399061 C7.8733435,0.70828125 7.8733435,0.806207013 7.93239437,0.870497653 C7.93816356,0.890833939 7.93816356,0.91233977 7.93239437,0.932676056 L7.93239437,0.99485446 C7.90155885,1.10682331 7.90155885,1.22486683 7.93239437,1.33683568 C7.83655892,1.37020834 7.77186204,1.45875471 7.77014085,1.55890141 C7.77350211,1.59895309 7.78419074,1.63807482 7.80169014,1.67437559 C7.81849812,1.70800468 7.84519842,1.7358633 7.87830986,1.75431925 C7.80425595,1.78898535 7.73465744,1.83222282 7.67098592,1.88311737 C7.51434997,1.99396533 7.4219538,2.17275187 7.42309859,2.36277934 C7.42155754,2.38792389 7.42155754,2.41313715 7.42309859,2.43828169 C7.34894792,2.4310033 7.27607261,2.46106436 7.22929577,2.51822535 C7.19980962,2.55161345 7.17825325,2.59106289 7.16619718,2.63369953 C7.15653783,2.65949743 7.15653783,2.6878453 7.16619718,2.71364319 L7.13014085,2.71364319 C7.04335959,2.72059933 6.97661476,2.79217417 6.97690141,2.87797183 C6.9757477,2.88830372 6.9757477,2.89872915 6.97690141,2.90906103 C6.94561037,2.93913776 6.91249803,2.96731776 6.87774648,2.99344601 C6.74935793,3.0785542 6.64536383,3.19479735 6.57577465,3.33098592 C6.51457348,3.29685338 6.44184861,3.28893546 6.37456194,3.30907888 C6.30727527,3.3292223 6.2513097,3.37566588 6.21971831,3.43757746 C6.21971831,3.45978404 6.21971831,3.43757746 6.21971831,3.48643192 C6.21971831,3.53528638 6.21971831,3.54861033 6.21971831,3.55749296 C6.21677535,3.57513986 6.21677535,3.59314183 6.21971831,3.61078873 C6.14796692,3.57759449 6.0690185,3.56234017 5.98985915,3.56637559 C5.85746186,3.56348307 5.72670743,3.59569497 5.61126761,3.65964319 C5.55137636,3.69669795 5.49808203,3.74321313 5.45352113,3.79732394 C5.42757458,3.82942078 5.39723903,3.85781925 5.36338028,3.88170892 C5.3235072,3.90414355 5.28116795,3.92202432 5.2371831,3.93500469 L5.17408451,3.93500469 C5.12330249,3.91554659 5.07034619,3.90212783 5.01633803,3.89503286 C4.93845043,3.88659774 4.85985943,3.88659774 4.78197183,3.89503286 C4.7143662,3.89503286 4.66028169,3.98830047 4.63774648,4.06380282 C4.63544545,4.00277919 4.59899484,3.94804545 4.54309859,3.92168075 C4.4634883,3.88604754 4.37796533,3.8649786 4.29070423,3.85950235 C4.19155904,3.86226253 4.09314884,3.87718177 3.99774648,3.90391549 C3.96158944,3.83889558 3.8964584,3.79446244 3.82197183,3.784 L3.77239437,3.784 C3.71413379,3.71120228 3.6273811,3.66603904 3.53352113,3.65964319 C3.46238671,3.65169371 3.39043132,3.6640252 3.32619718,3.69517371 C3.28773055,3.67329804 3.24438834,3.66109515 3.2,3.65964319 C3.12960596,3.65400946 3.05943478,3.67286796 3.00169014,3.71293897 L3.00169014,3.68629108 C3.00557129,3.67324159 3.00557129,3.65936874 3.00169014,3.64631925 C3.00338267,3.62414399 3.00338267,3.60187479 3.00169014,3.57969953 C3.00927018,3.55660138 3.00927018,3.53173665 3.00169014,3.5086385 C2.99492918,3.49123733 2.98583429,3.47480653 2.97464789,3.45978404 C2.9585607,3.43866275 2.93870664,3.42060319 2.91605634,3.40648826 C2.86108148,3.31982683 2.75318217,3.28132956 2.65464789,3.31322066 C2.63742397,3.29802863 2.61758088,3.28599557 2.59605634,3.27769014 C2.59406937,3.23172611 2.58336867,3.18653474 2.56450704,3.1444507 C2.51761581,3.04267745 2.42919149,2.9652243 2.32112676,2.93126761 C2.29931576,2.85287347 2.24544917,2.78692431 2.17239437,2.74917371 C2.12413189,2.73326064 2.07192444,2.73326064 2.02366197,2.74917371 L2.02366197,2.72696714 C2.02767742,2.70642986 2.02767742,2.68532601 2.02366197,2.66478873 C2.01583204,2.63079447 2.0004379,2.59893824 1.97859155,2.57152113 C1.96860585,2.47442014 1.89545312,2.39512563 1.79830986,2.37610329 C1.80449871,2.31941999 1.78270547,2.2632535 1.73971831,2.22509859 C1.72507994,2.2120675 1.70831995,2.20155759 1.69014085,2.19400939 C1.68828493,2.13897178 1.67605829,2.08475424 1.65408451,2.03412207 C1.62394724,1.91799431 1.51404248,1.83956874 1.39267606,1.84758685 C1.36327625,1.81191427 1.32154812,1.78819143 1.27549296,1.78096714 L1.27549296,1.74987793 L1.33859155,1.74987793 C1.38642832,1.7199856 1.42409894,1.67667747 1.44676056,1.62552113 C1.45980959,1.58810366 1.45980959,1.54746442 1.44676056,1.51004695 C1.48440181,1.41703693 1.45277895,1.31072056 1.37014085,1.2524507 L1.33408451,1.2524507 C1.35513639,1.20425324 1.35513639,1.14964347 1.33408451,1.10144601 C1.3720233,1.05280983 1.39403241,0.993941996 1.3971831,0.932676056 C1.39832249,0.868925214 1.37214211,0.80765358 1.32507042,0.763906103 C1.32599339,0.750597682 1.32599339,0.737242694 1.32507042,0.723934272 C1.34165208,0.659627053 1.32476581,0.591403008 1.28,0.541840376 C1.22176638,0.469760043 1.12035246,0.447552271 1.03661972,0.488544601 L0.991549296,0.488544601 L0.964507042,0.488544601 C0.911487887,0.481556539 0.857852399,0.495971074 0.815774648,0.528516432 C0.762672843,0.5713173 0.720912915,0.626185207 0.694084507,0.688403756 L0.662535211,0.688403756 C0.597169591,0.706443132 0.54193321,0.749667631 0.509295775,0.808319249 C0.479382229,0.862602523 0.466814098,0.924526768 0.473239437,0.985971831 C0.441344855,1.00779823 0.415099891,1.03670307 0.396619718,1.07035681 C0.306478873,1.23468545 0.428169014,1.36348357 0.536338028,1.43898592 C0.518419015,1.45242832 0.503144509,1.46898525 0.491267606,1.48784038 C0.44402228,1.56909032 0.458881767,1.67158982 0.527323944,1.73655399 C0.544289929,1.7870563 0.577522592,1.83072033 0.621971831,1.8609108 C0.671972485,1.89065566 0.731160658,1.90169012 0.788732394,1.892 L0.761690141,1.9230892 C0.758854197,1.94223345 0.758854197,1.96168204 0.761690141,1.98082629 C0.705579191,2.0039511 0.666122885,2.05466532 0.658028169,2.11406573 C0.640264599,2.21362887 0.680230945,2.31465611 0.761690141,2.37610329 C0.76984622,2.504092 0.847359829,2.6178181 0.964507042,2.67367136 C0.969483601,2.71181433 0.983368406,2.74830052 1.00507042,2.78026291 C1.04240968,2.82414905 1.09290161,2.8552463 1.14929577,2.8690892 C1.12525407,2.90120648 1.11258579,2.94021753 1.11323944,2.98012207 C1.11830821,3.0303073 1.14056152,3.07729756 1.17633803,3.1133615 C1.19738832,3.13869431 1.22563833,3.15725299 1.25746479,3.16665728 L1.25746479,3.19330516 C1.29202317,3.2295828 1.33815346,3.25309533 1.38816901,3.25992488 C1.40948591,3.27025155 1.43445775,3.27025155 1.45577465,3.25992488 C1.48859078,3.25135902 1.5192717,3.23624227 1.54591549,3.21551174 L1.54591549,3.25104225 C1.5114002,3.37494944 1.56022373,3.50681063 1.66760563,3.57969953 C1.67213275,3.67420579 1.7161889,3.76264103 1.78929577,3.82397183 C1.86249109,3.89448136 1.95786245,3.93833894 2.05971831,3.94832864 L2.11830986,3.94832864 L2.16788732,3.97941784 C2.16689224,4.02417708 2.18117666,4.06796941 2.2084507,4.10377465 C2.22613807,4.12755429 2.24741774,4.14852363 2.2715493,4.16595305 C2.28577137,4.17757702 2.30288787,4.18524379 2.32112676,4.18815962 L2.39774648,4.18815962 C2.42365591,4.20541227 2.45275081,4.2174841 2.48338028,4.22369014 C2.4920902,4.27078141 2.51971605,4.31241654 2.56,4.33916432 C2.6082561,4.36467526 2.66362303,4.37402832 2.71774648,4.36581221 C2.73967697,4.37947051 2.76422247,4.38854084 2.78985915,4.39246009 C2.81070539,4.45156209 2.85684783,4.49865552 2.91605634,4.52125822 C2.97665883,4.53667753 3.04024257,4.53667753 3.10084507,4.52125822 C3.13454832,4.57533024 3.18763027,4.61495738 3.24957746,4.63229108 C3.32688891,4.65903703 3.41113926,4.65903703 3.4884507,4.63229108 C3.51417848,4.65082291 3.54323504,4.66438584 3.57408451,4.67226291 L3.6056338,4.67226291 C3.6886247,4.66446534 3.76723362,4.63193107 3.83098592,4.57899531 C3.87569369,4.61005542 3.92957181,4.62567081 3.98422535,4.62340845 C4.06226009,4.62504725 4.13743386,4.59445001 4.1915493,4.53902347 L4.22309859,4.53902347 L4.32676056,4.47240376 C4.37657725,4.44649379 4.42960503,4.42708501 4.48450704,4.41466667 C4.53727793,4.39906352 4.57920919,4.35939652 4.5971831,4.30807512 C4.61124516,4.36999386 4.65493891,4.42133051 4.7143662,4.44575587 C4.77407932,4.46497464 4.83274857,4.48721065 4.89014085,4.51237559 C4.91267606,4.51237559 4.94873239,4.55234742 4.94873239,4.54346479 C4.9926098,4.62595186 5.07957652,4.67737087 5.17408451,4.67670423 C5.24453345,4.6747524 5.31051227,4.64224411 5.3543662,4.58787793 C5.44325972,4.65509088 5.5493751,4.69661051 5.66084507,4.70779343 C5.8596466,4.68163968 6.051168,4.61671712 6.22422535,4.5168169 L6.30084507,4.48128638 C6.34266975,4.4750105 6.38521758,4.4750105 6.42704225,4.48128638 C6.51989823,4.4813181 6.59586628,4.40842789 6.59830986,4.31695775 C6.60000667,4.30368626 6.60000667,4.2902574 6.59830986,4.27698592 L6.64788732,4.29919249 C6.67548917,4.30941637 6.70591928,4.30941637 6.73352113,4.29919249 C6.78566616,4.29855447 6.83622441,4.28142853 6.87774648,4.25033803 C6.91265082,4.22418629 6.93923628,4.18874228 6.9543662,4.14818779 C6.95898204,4.12621414 6.95898204,4.10354173 6.9543662,4.08156808 C6.9626373,4.04650498 6.9626373,4.01003962 6.9543662,3.97497653 C7.11160072,3.96738841 7.26532737,3.92648751 7.40507042,3.85506103 C7.55806815,3.75497193 7.6560658,3.59129642 7.67098592,3.41092958 C7.6940507,3.381699 7.70672027,3.3458051 7.70704225,3.30877934 L7.75661972,3.30877934 C7.77417451,3.31453673 7.79314943,3.31453673 7.81070423,3.30877934 L7.85577465,3.30877934 C7.88999905,3.30146737 7.92132146,3.28449127 7.94591549,3.25992488 L7.97746479,3.22883568 C7.99549143,3.21582189 8.00826393,3.19694253 8.01352113,3.17553991 C8.01352113,3.17553991 8.01352113,3.12224413 8.01352113,3.10892019 C8.01850488,3.08548773 8.01850488,3.06129161 8.01352113,3.03785915 C8.00827263,3.00462233 7.99598788,2.97284514 7.97746479,2.94459155 L8.04056338,2.91350235 C8.21717801,2.78163452 8.34151851,2.59313117 8.39211268,2.3805446 C8.41969176,2.31973037 8.45782157,2.26412119 8.50478873,2.21621596 C8.55991594,2.16171493 8.56928072,2.07681525 8.52732394,2.01191549 C8.51118783,1.98532338 8.48775139,1.96376834 8.45971831,1.94973709 L8.50478873,1.94973709 C8.53100277,1.94064803 8.55540633,1.92712122 8.57690141,1.90976526 C8.57690141,1.90976526 8.59943662,1.90976526 8.61295775,1.87423474 C8.62687369,1.85307695 8.63893607,1.83078986 8.64901408,1.80761502 L8.64901408,1.77652582 C8.65070166,1.76028345 8.65070166,1.74391373 8.64901408,1.72767136 C8.6454725,1.68427493 8.63321645,1.64200434 8.61295775,1.60331455 L8.69859155,1.496723 Z" id="Shape"></path>
                    </g>
                    <path d="M6.82366197,5.24519249 L6.82366197,5.1874554 C6.82180606,5.13241779 6.8095794,5.07820026 6.78760563,5.02756808 C6.75605634,4.96983099 6.57577465,4.83215023 6.50366197,4.84103286 C6.38711441,4.88291637 6.28322808,4.95320115 6.20169014,5.04533333 C6.08901408,5.15192488 6.10253521,5.24075117 5.94478873,5.23186854 L5.85915493,5.23186854 L5.85915493,5.19633803 C5.8651643,5.16403755 5.8651643,5.13092959 5.85915493,5.09862911 C5.85727459,5.05782631 5.84969136,5.01747417 5.83661972,4.97871362 L5.74647887,4.87656338 C5.74647887,4.87656338 5.57521127,4.78329577 5.56619718,4.78773709 L5.4084507,4.78773709 L5.14704225,4.92985915 L5.12,4.92985915 L4.95774648,4.96983099 L4.9171831,4.96983099 L5.06140845,4.76553052 L4.77746479,4.79661972 L4.69183099,4.79661972 L4.59267606,4.79661972 C4.55823157,4.78648548 4.52609496,4.76989753 4.49802817,4.74776526 C4.45718211,4.7182787 4.41338682,4.69298 4.36732394,4.67226291 C4.29727913,4.64167496 4.22495377,4.61643328 4.15098592,4.59676056 C4.0922657,4.57976645 4.03179131,4.5693378 3.97070423,4.56567136 C3.91590992,4.56704004 3.86268876,4.58400751 3.81746479,4.61452582 C3.74745806,4.66204784 3.68897429,4.72422851 3.64619718,4.79661972 C3.58658091,4.72650793 3.51846726,4.6638623 3.44338028,4.61008451 L3.41633803,4.58787793 C3.3039617,4.51262683 3.17330022,4.46817536 3.03774648,4.45907981 C2.92308802,4.44968106 2.81031396,4.49217169 2.73126761,4.57455399 C2.73291359,4.5479308 2.73291359,4.52123352 2.73126761,4.49461033 C2.71193076,4.35009341 2.63982974,4.21746758 2.5284507,4.12153991 C2.43569676,4.02272526 2.30445544,3.96776112 2.16788732,3.97053521 C2.11705658,3.97887626 2.0699461,4.00208798 2.03267606,4.03715493 C1.99418996,4.0777256 1.96905241,4.12881571 1.96056338,4.18371831 L1.96056338,4.2103662 C1.96056338,4.2103662 1.96056338,4.2103662 1.96056338,4.23701408 C1.95884856,4.25770578 1.95884856,4.27850079 1.96056338,4.29919249 L1.96056338,4.34360563 L1.98760563,4.41910798 L2.01464789,4.45907981 L2.01464789,4.48128638 L2.05971831,4.54346479 L2.17239437,4.63673239 L2.21746479,4.65893897 L2.28056338,4.69002817 L2.31211268,4.69002817 L2.3571831,4.69002817 L2.39323944,4.69002817 L2.42478873,4.69002817 L2.48788732,4.69002817 L2.54647887,4.69002817 L2.62760563,4.69002817 C2.62567157,4.7047712 2.62567157,4.71969828 2.62760563,4.73444131 C2.63795102,4.78226863 2.6631557,4.8257336 2.69971831,4.85879812 C2.8320344,4.94975034 2.98910378,4.99927957 3.15042254,5.00092019 L3.28112676,5.00092019 C3.37759967,4.99884023 3.47144624,4.96955558 3.5515493,4.91653521 C3.55926132,4.99270211 3.59444352,5.06361623 3.65070423,5.11639437 C3.7080558,5.17250682 3.77966368,5.21239063 3.85802817,5.23186854 C3.9879884,5.26258983 4.12101235,5.27897535 4.25464789,5.280723 C4.33579129,5.28310812 4.41670729,5.27107252 4.49352113,5.24519249 C4.55638427,5.22157802 4.61440415,5.18697285 4.66478873,5.14304225 C4.64632176,5.2111141 4.63722623,5.2813236 4.63774648,5.35178404 C4.63774648,5.40952113 4.63774648,5.47614085 4.63774648,5.53387793 C3.84450704,5.53387793 3.2,5.72485446 3.2,5.97800939 C3.2,6.23116432 3.84450704,6.42214085 4.63774648,6.42214085 C5.43098592,6.42214085 6.07549296,6.23116432 6.07549296,5.97800939 C6.07549296,5.72485446 5.66535211,5.63602817 5.10197183,5.57829108 C5.11225235,5.53983822 5.13243425,5.50465249 5.16056338,5.47614085 C5.26803781,5.4011683 5.39429264,5.35662516 5.5256338,5.34734272 C5.5838569,5.34479163 5.64079405,5.32962765 5.69239437,5.30292958 L5.7284507,5.30292958 L5.90873239,5.37843192 L6.06647887,5.42284507 L6.1115493,5.42284507 L6.25577465,5.42284507 C6.41607653,5.40863206 6.57060683,5.35685797 6.70647887,5.27184038 L6.73352113,5.27184038 L6.76056338,5.27184038 L6.82366197,5.22298592 L6.82366197,5.24519249 Z" id="Shape" fill="#039188"></path>
                    <g id="eagle_snake" transform="translate(1.352113, 0.000000)">
                        <path d="M1.72619718,3.92168075 L1.61802817,3.76179343 L1.5684507,3.76179343 L1.6,3.76179343 C1.57928276,3.76687136 1.55761865,3.76687136 1.53690141,3.76179343 C1.50258879,3.76110211 1.47004182,3.74666956 1.44676056,3.7218216 C1.41507706,3.69058292 1.3945197,3.65006779 1.38816901,3.60634742 C1.37824635,3.54840777 1.3616118,3.49178099 1.33859155,3.43757746 C1.29390335,3.3625283 1.23220051,3.29868515 1.15830986,3.25104225 C1.08619718,3.19330516 1.01859155,3.14000939 1.00957746,3.07783099 C1.00827432,3.06602229 1.00827432,3.05410917 1.00957746,3.04230047 C1.01427397,2.98668775 1.02956428,2.93244537 1.05464789,2.88241315 L1.05464789,2.84244131 C1.07391933,2.80223585 1.08318951,2.7580834 1.08169014,2.71364319 C1.08169014,2.71364319 1.08169014,2.71364319 1.08169014,2.68255399 C1.08237423,2.66923857 1.08237423,2.65589758 1.08169014,2.64258216 C1.0635774,2.547433 1.00435354,2.46475607 0.91943662,2.41607512 C0.879657523,2.38989701 0.837393605,2.36758581 0.793239437,2.3494554 C0.793239437,2.3494554 0.766197183,2.287277 0.730140845,2.27839437 C0.694084507,2.26951174 0.676056338,2.33613146 0.658028169,2.3494554 L0.658028169,2.30948357 C0.650382341,2.28470291 0.629659754,2.26598423 0.603943662,2.26062911 C0.584234772,2.25624377 0.563972552,2.26531956 0.554366197,2.28283568 C0.554366197,2.28283568 0.554366197,2.22953991 0.486760563,2.22953991 C0.41915493,2.22953991 0.437183099,2.30504225 0.423661972,2.30504225 C0.410140845,2.30504225 0.347042254,2.30504225 0.338028169,2.35389671 C0.329014085,2.40275117 0.383098592,2.40719249 0.387605634,2.41607512 C0.381308828,2.44086011 0.381308828,2.46679247 0.387605634,2.49157746 C0.387605634,2.52266667 0.464225352,2.49157746 0.486760563,2.49157746 C0.48549979,2.49892753 0.48549979,2.50643398 0.486760563,2.51378404 C0.509295775,2.54931455 0.585915493,2.51378404 0.585915493,2.51378404 L0.585915493,2.48269484 C0.585915493,2.50934272 0.585915493,2.55819718 0.626478873,2.56707981 C0.654791563,2.57299582 0.683785221,2.56049607 0.698591549,2.53599061 L0.743661972,2.56707981 C0.771037264,2.58718849 0.791488892,2.61509316 0.802253521,2.64702347 C0.79292018,2.70623129 0.773087279,2.76335894 0.743661972,2.81579343 C0.707953181,2.88946566 0.688009158,2.96959015 0.685070423,3.0511831 C0.685070423,3.0511831 0.685070423,3.07783099 0.685070423,3.09115493 C0.682895594,3.11627675 0.682895594,3.14153545 0.685070423,3.16665728 C0.691738592,3.21379326 0.713903072,3.25747576 0.748169014,3.29101408 C0.770514528,3.3204682 0.796223324,3.34729231 0.824788732,3.37095775 C0.895392266,3.41671933 0.959114758,3.47203715 1.01408451,3.53528638 C1.04981534,3.61414968 1.07263372,3.69809597 1.08169014,3.784 C1.0897126,3.82986177 1.10333255,3.87459953 1.12225352,3.91723944 C1.13986336,3.9577482 1.16978022,3.99188362 1.20788732,4.01494836 C1.2638952,4.04733379 1.32773917,4.06421287 1.39267606,4.06380282 L1.46478873,4.06380282 L1.55042254,4.04159624 C1.58382601,4.02906715 1.61559851,4.01266712 1.64507042,3.99274178 C1.67904316,3.97808174 1.70743977,3.95320841 1.72619718,3.92168075 Z M1.32507042,3.54416901 L1.32507042,3.49975587 L1.32507042,3.5397277 L1.32507042,3.54416901 Z" id="Shape" fill="#57A863"></path>
                        <path d="M1.44922535,1.16326291 C1.54422535,1.16326291 1.48922535,0.888262911 1.48922535,0.888262911 L1.42422535,0.943262911 C1.44771413,0.975397721 1.46158636,1.01354637 1.46422535,1.05326291 C1.46883906,1.08811087 1.46883906,1.12341496 1.46422535,1.15826291 L1.44922535,1.16326291 Z" id="Shape" fill="#57A863"></path>
                        <path d="M2.39774648,3.68629108 L2.33915493,3.55749296 L2.33915493,3.46866667 L2.33915493,3.37984038 L2.33915493,3.2954554 L2.31211268,3.21551174 L2.26704225,3.1444507 L2.22647887,3.10892019 L2.18591549,3.07338967 L2.10929577,3.0511831 L2.0371831,3.0511831 L1.89746479,3.0511831 L1.74873239,3.0511831 L1.69014085,3.0511831 L1.57746479,2.99788732 L1.50535211,2.87797183 L1.50535211,2.73584977 L1.53690141,2.6559061 L1.58197183,2.5937277 L1.60901408,2.56707981 L1.70816901,2.46937089 L1.73070423,2.46937089 L1.80732394,2.40719249 L1.86591549,2.36277934 L1.94704225,2.29615962 C1.97290284,2.27577267 1.99566893,2.25184299 2.01464789,2.22509859 L2.10478873,2.12294836 L2.16788732,2.01191549 C2.1338645,1.97986839 2.09414021,1.95427359 2.05070423,1.93641315 C2.09418913,1.95418247 2.1339296,1.97978768 2.16788732,2.01191549 L2.16788732,1.9230892 L2.16788732,1.81205634 L2.1228169,1.73655399 L2.06873239,1.66105164 L2.01014085,1.59443192 L1.97859155,1.56334272 L1.8343662,1.56334272 L1.75774648,1.65216901 L1.65859155,1.76320188 L1.81633803,1.87867606 C1.81922263,1.8888442 1.81922263,1.89959711 1.81633803,1.90976526 C1.73971831,2.07853521 1.57295775,2.15847887 1.42422535,2.26507042 C1.34555323,2.31651936 1.27812583,2.38296344 1.22591549,2.46048826 C1.16608895,2.55972712 1.13637159,2.67378052 1.14028169,2.78914554 C1.1265933,2.96984237 1.20623474,3.14517005 1.35211268,3.25548357 C1.43248582,3.30739481 1.52643681,3.33516907 1.62253521,3.33542723 L1.69464789,3.33542723 L1.84788732,3.33542723 L1.93802817,3.33542723 C1.95419248,3.33061008 1.97144132,3.33061008 1.98760563,3.33542723 C1.99069878,3.34404838 1.99069878,3.35345397 1.98760563,3.36207512 C1.9841526,3.3843275 1.9730082,3.40472243 1.95605634,3.41981221 L1.91098592,3.45534272 L2.03267606,3.56637559 L2.03267606,3.69073239 L2.16788732,3.71738028 L2.19943662,3.71738028 L2.24,3.71738028 L2.39774648,3.68629108 Z" id="Shape" fill="#57A863"></path>
                        <path d="M1.06816901,1.53225352 C1.06816901,1.60775587 1.09971831,1.6788169 1.15380282,1.70102347 C1.25868704,1.71171975 1.36441155,1.71171975 1.46929577,1.70102347 L1.5143662,1.70102347 L1.5143662,1.66993427 L1.58647887,1.43010329 C1.55899819,1.44103258 1.5302254,1.44849394 1.50084507,1.45230986 L1.35211268,1.45230986 L1.29802817,1.45230986 C1.28799431,1.42965467 1.28799431,1.40390401 1.29802817,1.38124883 C1.33859155,1.38124883 1.38816901,1.35015962 1.46929577,1.31907042 C1.55042254,1.28798122 1.6,1.20359624 1.58647887,1.19915493 C1.57295775,1.19471362 1.54591549,1.23912676 1.47830986,1.27021596 C1.42433249,1.29807478 1.36297515,1.30892703 1.30253521,1.30130516 C1.28,1.30130516 1.30253521,1.26133333 1.30253521,1.23024413 C1.32403817,1.18689087 1.3513217,1.14656239 1.38366197,1.11032864 C1.40010796,1.07406416 1.40782063,1.03454315 1.40619718,0.99485446 C1.40619718,0.954882629 1.50084507,0.906028169 1.50535211,0.892704225 C1.50985915,0.879380282 1.50535211,0.843849765 1.46478873,0.843849765 C1.42422535,0.843849765 1.38366197,0.906028169 1.38366197,0.906028169 L1.35661972,0.906028169 C1.34183862,0.902267362 1.32633039,0.902267362 1.3115493,0.906028169 L1.25746479,0.941558685 L1.21239437,0.977089202 C1.13749295,1.03098336 1.07587384,1.10081193 1.03211268,1.18138967 C1.03211268,1.25689202 1.09971831,1.341277 1.10422535,1.35015962 C1.08863998,1.4101187 1.07660094,1.470919 1.06816901,1.53225352 Z" id="Shape" fill="#57A863"></path>
                        <g id="eagle" transform="translate(1.352113, 0.000000)">
                            <path d="M4.95774648,2.33613146 C4.95774648,2.33613146 4.89915493,2.30060094 4.82704225,2.23842254 L4.72788732,2.08741784 C4.62796399,1.83642911 4.50104266,1.59671087 4.34929577,1.3723662 C4.17446623,1.12252184 3.95074536,0.909613513 3.69126761,0.746140845 C3.69555249,0.729949251 3.70322878,0.71482057 3.71380282,0.7017277 C3.71380282,0.7017277 3.79492958,0.612901408 3.76788732,0.599577465 C3.74084507,0.586253521 3.66422535,0.599577465 3.61014085,0.599577465 C3.55605634,0.599577465 3.52450704,0.599577465 3.37577465,0.484103286 C3.00984204,0.262038717 2.59266937,0.135197162 2.16338028,0.115474178 C1.93352113,0.115474178 1.82985915,0.182093897 1.81633803,0.226507042 L1.81633803,0.262037559 C1.73521127,0.262037559 1.47830986,0.262037559 1.48732394,0.492985915 C1.48732394,0.586253521 1.50985915,0.617342723 1.58647887,0.639549296 C1.71753772,0.653763403 1.84218967,0.702897044 1.94704225,0.781671362 C2.03501829,0.8426524 2.08719076,0.94215876 2.08676056,1.04815023 C2.08584575,1.09425255 2.07509643,1.13964922 2.05521127,1.18138967 L2.13633803,1.57222535 L2.19492958,1.78096714 L2.19492958,1.82538028 L2.24901408,2.20289202 L2.61408451,2.82023474 L2.69971831,2.82023474 L2.77633803,2.82023474 C2.81981006,2.77906518 2.85364789,2.72904864 2.87549296,2.67367136 L2.91605634,2.67367136 C2.91605634,2.69587793 3.01070423,2.81579343 3.06929577,2.84244131 C3.12788732,2.8690892 3.15943662,2.84244131 3.21352113,2.9001784 C3.30536492,3.0079694 3.39112803,3.1206526 3.47042254,3.23771831 C3.48711534,3.26236427 3.50517076,3.28608709 3.52450704,3.30877934 C3.53892958,3.31470109 3.55515493,3.31470109 3.56957746,3.30877934 C3.60112676,3.30877934 3.61014085,3.30877934 3.59661972,3.28657277 C3.54731029,3.23543165 3.50898602,3.17500704 3.48394366,3.10892019 C3.45380253,3.00169989 3.4098786,2.89871533 3.35323944,2.80246948 L3.42084507,2.80246948 C3.51270118,2.84809944 3.59050542,2.91710207 3.64619718,3.00232864 C3.65790344,3.0782897 3.68226932,3.151822 3.71830986,3.21995305 C3.74491402,3.28611131 3.77973319,3.34876688 3.82197183,3.40648826 C3.82197183,3.45090141 3.86704225,3.48643192 3.89408451,3.49087324 C3.92112676,3.49531455 3.89408451,3.44201878 3.86704225,3.40648826 C3.84,3.37095775 3.84,3.27324883 3.79492958,3.14889202 C3.77156871,3.04735153 3.73991633,2.94783808 3.70028169,2.85132394 L3.66422535,2.82023474 L3.69126761,2.82023474 L3.73633803,2.85132394 C3.79429376,2.91616125 3.83870874,2.99162204 3.86704225,3.07338967 C3.89408451,3.14889202 3.9256338,3.27324883 3.96169014,3.388723 C3.99774648,3.50419718 4.05633803,3.63299531 4.06985915,3.6019061 C4.08030443,3.46565778 4.05871168,3.32887155 4.00676056,3.20218779 C3.96414637,3.07301051 3.94135955,2.93828348 3.93915493,2.80246948 C3.98112214,2.82419573 4.01328912,2.86064828 4.02929577,2.90461972 C4.0743662,3.00232864 4.02929577,3.06450704 4.09690141,3.34875117 C4.12709578,3.4791243 4.17564087,3.60469679 4.24112676,3.7218216 C4.27267606,3.8150892 4.24112676,4.04159624 4.28619718,4.0904507 C4.29992592,3.91602092 4.29992592,3.74080537 4.28619718,3.56637559 C4.28619718,3.44646009 4.28619718,3.44201878 4.25014085,3.14889202 C4.21408451,2.85576526 4.21408451,2.81579343 4.20957746,2.8069108 C4.25109134,2.85179673 4.27917238,2.9071398 4.29070423,2.96679812 C4.34478873,3.15333333 4.34478873,3.46866667 4.38084507,3.54861033 C4.40669004,3.5974423 4.42927324,3.6478844 4.4484507,3.69961502 C4.48450704,3.80176526 4.41690141,4.22813146 4.48901408,4.22813146 C4.56112676,4.22813146 4.54760563,3.65076056 4.53408451,3.4775493 C4.52056338,3.30433803 4.50704225,2.82467606 4.50253521,2.7758216 C4.54102423,2.82088368 4.57428223,2.87004322 4.60169014,2.92238498 L4.60169014,2.95347418 C4.60169014,3.07783099 4.60169014,3.5086385 4.63774648,3.65520188 C4.66192451,3.75900546 4.67849312,3.86438857 4.68732394,3.97053521 C4.67990238,4.07509861 4.66483984,4.17899864 4.64225352,4.28142723 C4.64225352,4.32139906 4.64225352,4.39246009 4.69183099,4.38801878 C4.74140845,4.38357746 4.69183099,4.29475117 4.72338028,4.24589671 C4.73498659,4.21472068 4.75010456,4.18492569 4.7684507,4.15707042 C4.79549296,4.08156808 4.8,3.57969953 4.84507042,3.33098592 C4.90349179,3.16818364 4.93543513,2.99730572 4.93971831,2.82467606 C4.93995646,2.65551427 4.90625897,2.48797455 4.84056338,2.33169014 L4.92169014,2.33169014 C4.93282948,2.33722389 4.94556759,2.33879294 4.95774648,2.33613146 Z M3.74535211,0.777230047 L3.69577465,0.746140845 L3.74535211,0.777230047 Z" id="Shape" fill="#866F57"></path>
                            <path d="M1.2484507,3.784 C1.19776533,3.77994926 1.15152761,3.75391302 1.12225352,3.71293897 C1.12225352,3.69073239 1.15830986,3.66408451 1.15380282,3.64631925 C1.14929577,3.62855399 1.12676056,3.6019061 1.11323944,3.6019061 C1.0895295,3.5342814 1.04743685,3.47436759 0.991549296,3.42869484 C0.937464789,3.40204695 0.991549296,3.4775493 0.991549296,3.5086385 C0.985763114,3.53348301 0.985763114,3.55929634 0.991549296,3.58414085 C1.01051869,3.60845893 1.02152325,3.63789285 1.02309859,3.66852582 C1.02309859,3.66852582 1.02309859,3.69517371 0.982535211,3.70849765 L0.932957746,3.70849765 C0.886737235,3.68936978 0.838294977,3.67594408 0.788732394,3.66852582 C0.794741783,3.65431362 0.794741783,3.63832488 0.788732394,3.62411268 C0.789166607,3.58678791 0.770539606,3.55174586 0.73915493,3.53084507 C0.721510513,3.52566124 0.702714839,3.52566124 0.685070423,3.53084507 C0.678513591,3.5106225 0.678513591,3.48888924 0.685070423,3.46866667 C0.685070423,3.40204695 0.725633803,3.39316432 0.725633803,3.39316432 C0.70774007,3.39009613 0.689443029,3.39009613 0.671549296,3.39316432 L0.64,3.39316432 L0.608450704,3.39316432 C0.583205819,3.38775446 0.557075872,3.38775446 0.531830986,3.39316432 C0.464225352,3.39316432 0.414647887,3.48199061 0.401126761,3.53084507 L0.365070423,3.53084507 C0.322109468,3.54717634 0.293555656,3.58762386 0.292957746,3.63299531 C0.281801877,3.62664839 0.268057278,3.62664839 0.256901408,3.63299531 C0.236732201,3.6736278 0.236732201,3.72116094 0.256901408,3.76179343 C0.260084647,3.79020639 0.272769447,3.81676849 0.292957746,3.83729577 C0.292957746,3.86838498 0.333521127,3.92612207 0.36056338,3.92612207 C0.378038987,3.95151366 0.406170775,3.96782044 0.437183099,3.97053521 C0.477811195,3.96678301 0.515945704,3.94955958 0.545352113,3.92168075 C0.577481925,3.91580781 0.608116295,3.90373276 0.635492958,3.88615023 C0.65959721,3.88463085 0.682890069,3.87697979 0.703098592,3.86394366 C0.72899712,3.89099522 0.761626583,3.91089984 0.797746479,3.92168075 C0.833802817,3.92168075 0.910422535,3.8461784 0.950985915,3.79288263 C0.950985915,3.79288263 0.982535211,3.85061972 1.01408451,3.85061972 L1.0771831,3.94832864 L1.31605634,3.94832864 L1.41521127,3.85061972 C1.41521127,3.85061972 1.35211268,3.78844131 1.2484507,3.784 Z M1.05915493,3.784 L1.08169014,3.784 L1.08169014,3.81953052 L1.05915493,3.784 Z" id="Shape" fill="#F6D660"></path>
                            <path d="M3.33070423,5.09862911 C3.33240102,5.08535762 3.33240102,5.07192877 3.33070423,5.05865728 C3.34652024,5.02328709 3.34652024,4.9829946 3.33070423,4.94762441 L3.33070423,4.92097653 C3.29915493,4.88100469 3.26760563,4.88100469 3.26760563,4.88100469 C3.26760563,4.86628747 3.2554984,4.85435681 3.24056338,4.85435681 C3.24056338,4.85435681 3.24056338,4.77441315 3.19098592,4.7610892 C3.15142493,4.74852206 3.10885676,4.74852206 3.06929577,4.7610892 C3.06121252,4.74606237 3.05053678,4.73253657 3.03774648,4.72111737 C3.02222226,4.70541413 3.00135336,4.69592281 2.97915493,4.69446948 L2.93859155,4.65449765 C2.92633773,4.63712678 2.90596169,4.62708732 2.88450704,4.62784977 C2.8721332,4.60806198 2.8569567,4.59011578 2.83943662,4.57455399 L2.74478873,4.49461033 L2.74478873,4.34360563 L2.56,4.52569953 C2.56,4.52569953 2.56,4.52569953 2.56,4.55678873 L2.46535211,4.61452582 L2.38422535,4.65005634 C2.38422535,4.65005634 2.38422535,4.65005634 2.31661972,4.65005634 L2.25352113,4.65005634 C2.23260387,4.63815588 2.20683275,4.63815588 2.18591549,4.65005634 C2.13719191,4.65381609 2.09505187,4.68496023 2.07774648,4.73 C2.05407287,4.72417073 2.02930742,4.72417073 2.0056338,4.73 C1.9515493,4.73 1.89295775,4.76553052 1.89746479,4.83215023 C1.89284391,4.85561841 1.89284391,4.8797431 1.89746479,4.90321127 C1.90741645,4.91964107 1.92135521,4.93337659 1.93802817,4.9431831 C1.93802817,4.9431831 1.89746479,4.87212207 1.93802817,4.84991549 C1.97859155,4.82770892 2.01464789,4.84991549 2.04619718,4.84991549 C2.0764539,4.86250107 2.11058835,4.86250107 2.14084507,4.84991549 C2.13853463,4.86164958 2.13853463,4.87371192 2.14084507,4.88544601 C2.09852336,4.90942924 2.07138717,4.95288249 2.06873239,5.00092019 C2.06873239,5.07113564 2.11400547,5.13359362 2.18140845,5.1563662 L2.2084507,5.1563662 C2.2084507,5.1563662 2.1543662,5.08086385 2.18591549,5.0364507 C2.21746479,4.99203756 2.23549296,5.0364507 2.25352113,5.0364507 C2.2715493,5.0364507 2.25352113,5.0364507 2.25352113,5.0364507 C2.28366708,5.04956444 2.31802306,5.04956444 2.34816901,5.0364507 C2.3882216,5.02182159 2.40990155,4.97909401 2.39774648,4.93874178 L2.43830986,4.9120939 C2.47887324,4.88544601 2.52394366,4.84547418 2.56,4.82770892 C2.59605634,4.80994366 2.56,4.84991549 2.61408451,4.85435681 C2.62823968,4.86147499 2.64499975,4.86147499 2.65915493,4.85435681 C2.66753924,4.87849202 2.69210369,4.89338815 2.71774648,4.88988732 C2.7458125,4.89331553 2.77235808,4.87649938 2.78084507,4.84991549 L2.83943662,4.84991549 C2.83592833,4.85846174 2.83592833,4.86801714 2.83943662,4.87656338 C2.83943662,4.87656338 2.83943662,4.87656338 2.83943662,4.87656338 C2.84137536,4.91817361 2.8643264,4.95606398 2.90057308,4.97749483 C2.93681976,4.99892568 2.98154768,5.0010505 3.01971831,4.98315493 C3.01971831,4.98315493 3.04225352,4.98315493 3.04676056,4.98315493 C3.04676056,4.98315493 3.1143662,4.98315493 3.13690141,5.02312676 C3.15943662,5.06309859 3.06929577,5.12083568 3.06929577,5.12083568 C3.09455519,5.12611063 3.12065608,5.12611063 3.14591549,5.12083568 L3.19098592,5.12083568 C3.21045929,5.14110056 3.23884096,5.15056691 3.26680137,5.14612293 C3.29476179,5.14167895 3.31868396,5.12389952 3.33070423,5.09862911 Z" id="Shape" fill="#F6D660"></path>
                            <path d="M4.3628169,4.38357746 L4.27267606,4.31695775 C4.27267606,4.31695775 4.00225352,4.10821596 3.65521127,3.87282629 L2.93408451,3.33986854 C2.93882766,3.23939755 2.92664388,3.13884641 2.89802817,3.04230047 C2.87605514,2.97306306 2.84418576,2.9072629 2.80338028,2.84688263 C2.87098592,2.79358685 2.86647887,2.69143662 2.86647887,2.6248169 C2.86647887,2.55819718 2.78084507,2.46492958 2.81690141,2.50934272 C2.84256577,2.54403482 2.85530077,2.58638865 2.85295775,2.62925822 C2.84809225,2.69058001 2.81484359,2.74627842 2.7628169,2.78026291 C2.72752049,2.79842969 2.68543726,2.79842969 2.65014085,2.78026291 C2.62287249,2.69319352 2.58504027,2.60968521 2.53746479,2.5315493 C2.48338028,2.42939906 2.37070423,2.26507042 2.37070423,2.26062911 L2.37070423,2.21621596 C2.37070423,2.21621596 2.3256338,2.11850704 2.29859155,2.0740939 C2.27120269,2.0238528 2.24711558,1.97193067 2.22647887,1.91864789 C2.23463252,1.83445417 2.23463252,1.74968668 2.22647887,1.66549296 C2.21932282,1.59738409 2.20419891,1.53031902 2.18140845,1.4656338 C2.21404858,1.45528201 2.23477781,1.42371313 2.23098592,1.39013146 C2.19070167,1.35703046 2.15574958,1.3180956 2.12732394,1.27465728 C2.08436896,1.20421781 2.0452525,1.1315734 2.01014085,1.05703286 C1.96980741,0.99320274 1.9160075,0.938672693 1.85239437,0.89714554 C1.86201049,0.869815276 1.86201049,0.840090828 1.85239437,0.812760563 C1.85239437,0.812760563 1.85239437,0.843849765 1.76225352,0.843849765 C1.6930947,0.834163356 1.62606683,0.813147326 1.56394366,0.781671362 C1.50739159,0.762698759 1.44789311,0.753678635 1.38816901,0.755023474 C1.37628644,0.757545102 1.36399525,0.757545102 1.35211268,0.755023474 L1.31605634,0.755023474 C1.30850172,0.681447556 1.27866474,0.611811563 1.23042254,0.555164319 C1.22583642,0.585910647 1.21672656,0.615834008 1.20338028,0.64399061 C1.17903574,0.686495199 1.14868541,0.725375226 1.11323944,0.759464789 C1.10988487,0.710076936 1.10234689,0.661051805 1.09070423,0.612901408 C1.09070423,0.519633803 1.03661972,0.541840376 1.03661972,0.541840376 L1.03661972,0.577370892 C1.03786784,0.675621728 1.01628412,0.772851217 0.973521127,0.861615023 L0.896901408,0.89714554 C0.896901408,0.89714554 0.928450704,0.857173709 0.923943662,0.772788732 C0.91943662,0.688403756 0.856338028,0.652873239 0.856338028,0.652873239 C0.865087045,0.705820353 0.865087045,0.75981345 0.856338028,0.812760563 C0.843335274,0.875453667 0.813799297,0.933664151 0.770704225,0.981530516 C0.774970664,0.95058345 0.774970664,0.919209977 0.770704225,0.888262911 C0.770704225,0.768347418 0.716619718,0.772788732 0.716619718,0.772788732 C0.713825257,0.809576549 0.704679878,0.845624577 0.689577465,0.879380282 C0.66486464,0.959126501 0.621659637,1.03211209 0.563380282,1.09256338 C0.446197183,1.21692019 0.396619718,1.2213615 0.410140845,1.27465728 C0.412325005,1.28771824 0.419794062,1.29934678 0.430838578,1.30688147 C0.441883094,1.31441616 0.455557589,1.31721201 0.468732394,1.31462911 L0.504788732,1.31462911 L0.527323944,1.31462911 C0.592224667,1.35094208 0.66466834,1.37220635 0.73915493,1.37680751 C0.784225352,1.37680751 0.82028169,1.341277 0.901408451,1.341277 C0.982535211,1.341277 1.00056338,1.36792488 1.00056338,1.36792488 C1.01781109,1.39361149 1.0409761,1.41491686 1.06816901,1.43010329 C1.06816901,1.43010329 1.12676056,1.43010329 1.15380282,1.43010329 C1.17069396,1.45516434 1.18006709,1.48441305 1.18084507,1.51448826 L1.20338028,1.51448826 C1.19437399,1.54662864 1.1823014,1.57785705 1.16732394,1.60775587 C1.14028169,1.66549296 1.09070423,1.71434742 1.09521127,1.72323005 L1.12225352,1.72323005 L1.15380282,1.72323005 L1.05464789,1.87867606 C1.00957746,1.94973709 0.941971831,2.05188732 0.96,2.05188732 L1.02309859,2.05188732 C1.02179544,2.06369602 1.02179544,2.07560914 1.02309859,2.08741784 C0.946368978,2.19014491 0.894003407,2.30852575 0.869859155,2.43384038 C0.869859155,2.55819718 0.892394366,2.5315493 0.932957746,2.64702347 C0.960155308,2.74459649 0.9797429,2.84407574 0.991549296,2.94459155 C0.991549296,2.94459155 0.991549296,2.94459155 0.991549296,2.94459155 C1.01844871,2.93583349 1.0441752,2.92390346 1.06816901,2.90906103 L1.13577465,3.01565258 C1.12215461,3.09652352 1.13151419,3.17953125 1.1628169,3.25548357 C1.21835346,3.34877251 1.28492165,3.4352418 1.36112676,3.51307981 L1.30704225,3.46866667 C1.29164589,3.45025207 1.27136137,3.43641373 1.2484507,3.42869484 C1.22153829,3.41524251 1.18972931,3.41524251 1.1628169,3.42869484 C1.1628169,3.42869484 1.1628169,3.42869484 1.1628169,3.42869484 C1.17626147,3.47267634 1.1959898,3.51454845 1.22140845,3.55305164 C1.26273984,3.58540779 1.3081976,3.6122847 1.35661972,3.63299531 C1.31130897,3.63411988 1.26675757,3.64471684 1.22591549,3.66408451 C1.19497654,3.69331379 1.16773669,3.72612141 1.14478873,3.76179343 C1.14478873,3.78844131 1.1943662,3.82397183 1.29352113,3.86838498 C1.26378081,3.87436716 1.23312059,3.87436716 1.20338028,3.86838498 C1.13126761,3.86838498 1.12225352,3.81953052 1.11323944,3.82397183 C1.11323944,3.82397183 1.14028169,3.86394366 1.14028169,3.86394366 C1.10439455,3.85907586 1.06799982,3.85907586 1.03211268,3.86394366 C0.994002339,3.86667267 0.959199058,3.88627023 0.937464789,3.91723944 C0.989882335,3.95453959 1.04983039,3.98028971 1.11323944,3.99274178 L1.30704225,4.04159624 C1.29094014,4.0690792 1.29094014,4.10293958 1.30704225,4.13042254 C1.30704225,4.13042254 1.3656338,4.17483568 1.53690141,4.13042254 C1.59934571,4.11496504 1.65982177,4.09261725 1.7171831,4.06380282 L1.74873239,4.06380282 C1.74873239,4.06380282 1.80732394,4.19260094 1.84788732,4.18815962 C1.8884507,4.18371831 1.91098592,3.98385915 1.91098592,3.89947418 L2.13183099,4.14818779 C2.13183099,4.14818779 2.17239437,4.19704225 2.19943662,4.19260094 C2.19943662,4.19260094 2.24901408,4.29030986 2.29408451,4.37025352 C2.33915493,4.45019718 2.37971831,4.53014085 2.42028169,4.51237559 C2.46084507,4.49461033 2.46985915,4.43687324 2.4743662,4.42799061 L2.4743662,4.44131455 C2.53746479,4.49905164 2.64112676,4.61896714 2.65915493,4.61452582 C2.65915493,4.61452582 2.65915493,4.56123005 2.65915493,4.56123005 C2.66820493,4.50383734 2.66820493,4.44541149 2.65915493,4.38801878 C2.69971831,4.44575587 2.77183099,4.54346479 2.79887324,4.53014085 C2.80661513,4.48307397 2.80661513,4.43508566 2.79887324,4.38801878 C2.82591549,4.41466667 2.87098592,4.4546385 2.88901408,4.44575587 C2.90704225,4.43687324 2.88901408,4.34360563 2.88901408,4.32584038 C2.89103018,4.30367824 2.89103018,4.28138279 2.88901408,4.25922066 L2.88901408,4.22813146 L3.16394366,4.5479061 C3.19197832,4.57447605 3.22876634,4.59023756 3.26760563,4.59231925 C3.30897107,4.5980632 3.34926605,4.57640464 3.36676056,4.53902347 C3.40474204,4.58126917 3.45516447,4.61077087 3.51098592,4.62340845 C3.57137905,4.6289457 3.63006097,4.60173341 3.66422535,4.55234742 L3.70929577,4.58343662 C3.82263496,4.5926849 3.93533224,4.55936874 4.02478873,4.49016901 L4.05183099,4.49016901 C4.22760563,4.56123005 4.38084507,4.40134272 4.3628169,4.38357746 Z M2.67267606,2.84688263 C2.67385685,2.85572715 2.67385685,2.86468599 2.67267606,2.87353052 C2.67337047,2.86466106 2.67337047,2.85575208 2.67267606,2.84688263 Z M1.39267606,1.66105164 C1.39007378,1.64189136 1.39007378,1.62247483 1.39267606,1.60331455 C1.38816146,1.63270013 1.38665155,1.66245806 1.38816901,1.69214085 L1.39267606,1.66105164 Z M1.26197183,1.73211268 C1.24299359,1.74610862 1.22162264,1.75663826 1.19887324,1.76320188 L1.26197183,1.73211268 Z" id="Shape" fill="#866F57"></path>
                            <polygon id="Shape" fill="#866F57" points="1.05464789 0.577370892 1.05464789 0.582370892"></polygon>
                            <path d="M1.0771831,1.45675117 C1.0771831,1.39013146 0.982535211,1.35015962 0.892394366,1.35015962 C0.802253521,1.35015962 0.784225352,1.38569014 0.721126761,1.38569014 C0.658028169,1.38569014 0.558873239,1.29686385 0.423661972,1.29686385 L0.396619718,1.29686385 L0.365070423,1.32351174 L0.342535211,1.32351174 L0.342535211,1.34571831 C0.339863687,1.35591419 0.339863687,1.36661163 0.342535211,1.37680751 C0.342535211,1.37680751 0.301971831,1.37680751 0.243380282,1.44786854 C0.218199293,1.47346102 0.198300561,1.50362801 0.184788732,1.53669484 C0.182472464,1.55587286 0.182472464,1.5752539 0.184788732,1.59443192 C0.181017972,1.61200288 0.181017972,1.63015674 0.184788732,1.6477277 L0.216338028,1.71434742 L0.274929577,1.77652582 L0.32,1.80317371 L0.351549296,1.80317371 L0.414647887,1.80317371 C0.441520195,1.8053666 0.467977541,1.79558978 0.486760563,1.77652582 L0.432676056,1.72767136 L0.374084507,1.62996244 C0.370649691,1.61685346 0.370649691,1.60309959 0.374084507,1.58999061 C0.400889004,1.50005314 0.48636343,1.43962876 0.581408451,1.44342723 L0.635492958,1.44342723 L0.662535211,1.44342723 L0.703098592,1.48784038 L0.73915493,1.53669484 C0.73915493,1.53669484 1.10873239,1.53225352 1.0771831,1.45675117 Z" id="Shape" fill="#F6D660"></path>
                        </g>
                        <g id="eagle2" transform="translate(1.802817, 1.332394)">
                            <path d="M0.155704225,0.173211268 L0.130704225,0.173211268 C0.130704225,0.173211268 0.130704225,0.173211268 0.130704225,0.173211268 L0.155704225,0.173211268 Z" id="Shape" fill="#F9C83A"></path>
                            <path d="M0.17471831,0.190976526 L0.13971831,0.190976526 C0.13971831,0.190976526 0.13971831,0.190976526 0.13971831,0.190976526 L0.17471831,0.190976526 Z" id="Shape" fill="#8F4620"></path>
                            <path d="M0.477746479,2.40719249 C0.489101899,2.41100364 0.501391059,2.41100364 0.512746479,2.40719249 C0.512746479,2.40719249 0.512746479,2.40719249 0.512746479,2.40719249 L0.477746479,2.40719249 Z" id="Shape" fill="#977C2E"></path>
                        </g>
                    </g>
                </g>
            </g>
        </g>
    </g>
</svg>