<?xml version="1.0" encoding="UTF-8"?>
<svg width="32px" height="22px" viewBox="0 0 32 22" version="1.1" xmlns="http://www.w3.org/2000/svg" xmlns:xlink="http://www.w3.org/1999/xlink">
    <!-- Generator: Sketch 49.3 (51167) - http://www.bohemiancoding.com/sketch -->
    <title>Morocco@2x</title>
    <desc>Created with Sketch.</desc>
    <defs></defs>
    <g id="FInalll" stroke="none" stroke-width="1" fill="none" fill-rule="evenodd">
        <g id="Artboard" transform="translate(-151.000000, -475.000000)" fill-rule="nonzero">
            <g id="Morocco@2x" transform="translate(151.000000, 475.000000)">
                <rect id="Rounded_Rectangle_7_copy-35" fill="#ED5565" x="0.392112676" y="0" width="31.5466682" height="21.1830986" rx="4"></rect>
                <path d="M13.8095775,14.9543662 C13.3949296,15.2473239 13.1560563,15.0805634 13.2732394,14.5847887 L13.7239437,12.7414085 C13.8263273,12.1904694 13.6451554,11.624942 13.2416901,11.2360563 L11.8895775,10.0687324 C11.5064789,9.73521127 11.6056338,9.45577465 12.1104225,9.43774648 L13.9988732,9.38366197 C14.5370813,9.3457061 15.0012068,8.99141183 15.1797183,8.48225352 L15.7746479,6.45408451 C15.9188732,5.96732394 16.1757746,5.95830986 16.3470423,6.45408451 L17.0591549,8.44169014 C17.2611857,8.954267 17.739941,9.30500354 18.2895775,9.34309859 L20.2185915,9.34309859 C20.7233803,9.34309859 20.8270423,9.62704225 20.4439437,9.96056338 L18.9746479,11.2450704 C18.5729245,11.6306187 18.4019886,12.1981257 18.5239437,12.7414085 L18.9746479,14.3639437 C19.1143662,14.8552113 18.88,15.035493 18.4473239,14.7695775 L16.8833803,13.8005634 C16.400406,13.5354381 15.8113619,13.5544395 15.3464789,13.8501408 L13.8095775,14.9543662 Z" id="Shape_2_copy_35-2" fill="#E1FFE6"></path>
            </g>
        </g>
    </g>
</svg>