<?xml version="1.0" encoding="UTF-8"?>
<svg width="35px" height="24px" viewBox="0 0 35 24" version="1.1" xmlns="http://www.w3.org/2000/svg" xmlns:xlink="http://www.w3.org/1999/xlink">
    <!-- Generator: Sketch 50.2 (55047) - http://www.bohemiancoding.com/sketch -->
    <title>singapore@2x</title>
    <desc>Created with Sketch.</desc>
    <defs></defs>
    <g id="FInalll" stroke="none" stroke-width="1" fill="none" fill-rule="evenodd">
        <g id="Group-2-Copy" transform="translate(0.000000, -542.000000)" fill-rule="nonzero">
            <g id="singapore@2x" transform="translate(0.000000, 542.000000)">
                <path d="M31.82,23.635 L3.185,23.635 C2.3398785,23.6363299 1.52898839,23.3011954 0.9313965,22.7036035 C0.333804614,22.1060116 -0.00132985534,21.2951215 -2.42368864e-14,20.45 L-3.94270236e-06,11.635 L35.0000039,11.635 L35,20.45 C35.0013274,21.2942544 34.6668788,22.104385 34.0703692,22.7018325 C33.4738595,23.29928 32.6642554,23.6350011 31.82,23.635 Z" id="Shape" fill="#FFFFFF"></path>
                <path d="M0,3.315 C0,1.55873449 1.42373449,0.135 3.18,0.135 L31.815,0.135 C33.5712655,0.135 34.995,1.55873449 34.995,3.315 L34.995,11.635 L0,11.635 L0,3.315 Z" id="Shape" fill="#ED5565"></path>
                <path d="M9.7,4.955 C9.625,5.005 9.58,4.955 9.6,4.89 L9.68,4.57 C9.6975856,4.4735538 9.66344815,4.37493453 9.59,4.31 L9.345,4.105 C9.275,4.045 9.295,4 9.385,3.995 L9.73,3.995 C9.82707045,3.98906531 9.91144085,3.92627802 9.945,3.835 L10.055,3.485 C10.08,3.4 10.13,3.4 10.16,3.485 L10.29,3.83 C10.3296209,3.9200856 10.4167095,3.98007999 10.515,3.985 L10.865,3.985 C10.955,3.985 10.975,4.035 10.905,4.095 L10.635,4.32 C10.563433,4.38592072 10.5328703,4.48524952 10.555,4.58 L10.64,4.865 C10.665,4.95 10.64,4.98 10.545,4.935 L10.26,4.765 C10.1728489,4.71695801 10.0671511,4.71695801 9.98,4.765 L9.7,4.955 Z M8.2,6.215 C8.125,6.265 8.08,6.215 8.1,6.15 L8.18,5.83 C8.19880895,5.73444885 8.1666198,5.6359879 8.095,5.57 L7.85,5.365 C7.78,5.31 7.8,5.26 7.89,5.255 L8.235,5.255 C8.33207045,5.2490653 8.41644085,5.186278 8.45,5.095 L8.56,4.745 C8.585,4.66 8.635,4.66 8.665,4.745 L8.795,5.09 C8.8346209,5.1800856 8.9217095,5.24008 9.02,5.245 L9.375,5.245 C9.465,5.245 9.485,5.295 9.415,5.355 L9.145,5.58 C9.073433,5.6459207 9.0428703,5.7452495 9.065,5.84 L9.15,6.125 C9.175,6.21 9.15,6.24 9.055,6.195 L8.77,6.025 C8.6828489,5.976958 8.5771511,5.976958 8.49,6.025 L8.2,6.215 Z M11.27,6.215 C11.195,6.265 11.15,6.215 11.17,6.15 L11.25,5.83 C11.2665903,5.7336325 11.2326172,5.635488 11.16,5.57 L10.915,5.365 C10.845,5.31 10.865,5.26 10.955,5.255 L11.3,5.255 C11.3970705,5.2490653 11.4814409,5.186278 11.515,5.095 L11.625,4.745 C11.65,4.66 11.7,4.66 11.73,4.745 L11.86,5.09 C11.8996209,5.1800856 11.9867095,5.24008 12.085,5.245 L12.435,5.245 C12.525,5.245 12.545,5.295 12.475,5.355 L12.205,5.58 C12.133433,5.6459207 12.1028703,5.7452495 12.125,5.84 L12.21,6.125 C12.235,6.21 12.21,6.24 12.115,6.195 L11.83,6.025 C11.7428489,5.976958 11.6371511,5.976958 11.55,6.025 L11.27,6.215 Z M10.74,7.94 C10.665,7.99 10.62,7.94 10.64,7.875 L10.72,7.555 C10.7384229,7.45700475 10.7042917,7.35650725 10.63,7.29 L10.385,7.085 C10.315,7.025 10.335,6.975 10.425,6.975 L10.77,6.975 C10.8666145,6.9678303 10.9503888,6.90548665 10.985,6.815 L11.095,6.465 C11.12,6.38 11.17,6.38 11.2,6.465 L11.33,6.81 C11.3696209,6.9000856 11.4567095,6.96008 11.555,6.965 L11.91,6.965 C12,6.965 12.02,7.015 11.95,7.075 L11.68,7.3 C11.608433,7.3659207 11.5778703,7.4652495 11.6,7.56 L11.685,7.845 C11.71,7.93 11.685,7.96 11.59,7.915 L11.305,7.745 C11.2178489,7.696958 11.1121511,7.696958 11.025,7.745 L10.74,7.94 Z M8.845,7.94 C8.77,7.99 8.725,7.94 8.745,7.875 L8.825,7.555 C8.8434229,7.45700475 8.8092917,7.35650725 8.735,7.29 L8.49,7.085 C8.42,7.025 8.44,6.975 8.53,6.975 L8.875,6.975 C8.9716145,6.9678303 9.0553888,6.90548665 9.09,6.815 L9.2,6.465 C9.225,6.38 9.275,6.38 9.305,6.465 L9.435,6.81 C9.4746209,6.9000856 9.5617095,6.96008 9.66,6.965 L10.01,6.965 C10.1,6.965 10.12,7.015 10.05,7.075 L9.78,7.3 C9.708433,7.3659207 9.6778703,7.4652495 9.7,7.56 L9.785,7.845 C9.81,7.93 9.785,7.96 9.69,7.915 L9.405,7.745 C9.3178489,7.696958 9.2121511,7.696958 9.125,7.745 L8.845,7.94 Z M8.07,8.16 C7.9350074,8.2296911 7.79453875,8.2882197 7.65,8.335 C6.261015,8.80701625 4.74795584,8.0925161 4.23,6.72 C4.05515812,6.2083564 4.03946868,5.6557394 4.185,5.135 C4.62046528,3.73620271 6.0887602,2.93672387 7.5,3.33 C7.64733145,3.36981886 7.7911473,3.42165945 7.93,3.485 C7.9768545,3.49799849 8.0255616,3.47143098 8.04,3.425 C8.05218045,3.38639443 8.03544485,3.34455545 8,3.325 C7.1117304,2.64574691 5.94903555,2.43988252 4.88154384,2.77285248 C3.8140521,3.10582243 2.97457952,3.93619901 2.63,5 C2.44636871,5.62821785 2.46561553,6.298357 2.685,6.915 C3.08916247,7.95565465 3.97189717,8.7364185 5.0541245,9.0104504 C6.1363518,9.28448225 7.2842846,9.0179058 8.135,8.295 C8.1685547,8.2739038 8.1830752,8.23241665 8.17,8.195 C8.1494506,8.1492896 8.0969268,8.12740465 8.05,8.145 L8.07,8.16 Z" id="Shape" fill="#FFFFFF"></path>
            </g>
        </g>
    </g>
</svg>