<?xml version="1.0" encoding="UTF-8"?>
<svg width="32px" height="22px" viewBox="0 0 32 22" version="1.1" xmlns="http://www.w3.org/2000/svg" xmlns:xlink="http://www.w3.org/1999/xlink">
    <!-- Generator: Sketch 49.3 (51167) - http://www.bohemiancoding.com/sketch -->
    <title>south_africa@2x</title>
    <desc>Created with Sketch.</desc>
    <defs></defs>
    <g id="FInalll" stroke="none" stroke-width="1" fill="none" fill-rule="evenodd">
        <g id="Artboard" transform="translate(-151.000000, -390.000000)" fill-rule="nonzero">
            <g id="south_africa@2x" transform="translate(151.000000, 390.000000)">
                <rect id="Rounded_Rectangle_7_copy-43" fill="#4758A9" x="0.175774648" y="0.25247783" width="31.5492958" height="21.5753782" rx="4"></rect>
                <path d="M28.8450704,0.25247783 L3.04225352,0.25247783 C1.45914095,0.25247783 0.175774648,1.55961018 0.175774648,3.17203965 L0.175774648,9.43348983 L31.7250704,9.43348983 L31.7250704,3.17203965 C31.7250789,2.39533172 31.4212204,1.65063507 30.8807234,1.10271343 C30.3402264,0.554791777 29.6076479,0.248814113 28.8450704,0.25247783 Z" id="Shape" fill="#ED5565"></path>
                <path d="M16.3560563,7.3448096 L3.96169014,0.2295253 L3.06028169,0.2295253 C1.47716912,0.2295253 0.193802817,1.53665765 0.193802817,3.14908712 L0.193802817,18.8807512 C0.193802817,20.4931806 1.47716912,21.800313 3.06028169,21.800313 L3.96169014,21.800313 L16.3560563,14.6850287 L31.7205634,14.6850287 L31.7205634,7.3448096 L16.3560563,7.3448096 Z M15.7746479,12.3943662 L2.00112676,20.2992175 C1.56306485,19.9664047 1.3056144,19.4419687 1.30704225,18.8853417 L1.30704225,3.17203965 C1.3056144,2.61541265 1.56306485,2.09097656 2.00112676,1.7581638 L15.7746479,9.6400626 L30.6073239,9.6400626 L30.6073239,12.3943662 L15.7746479,12.3943662 Z" id="Shape" fill="#FFFFFF"></path>
                <path d="M2.01014085,0.4590506 C0.903512428,0.891880978 0.172623326,1.9738503 0.171267606,3.18122066 L0.171267606,18.9128847 C0.172623326,20.1202551 0.903512428,21.2022244 2.01014085,21.6350548 L16.0585915,13.5695357 L31.7205634,13.5695357 L31.7205634,8.51997913 L16.0630986,8.51997913 L2.01014085,0.4590506 Z" id="Shape" fill="#57A863"></path>
                <polygon id="Shape" fill="#FFCE54" points="0.175774648 3.42910798 0.175774648 4.81544079 11.0016901 11.0401669 0.175774648 17.2648931 0.175774648 18.6512259 13.2552113 11.0401669"></polygon>
                <polygon id="Shape" fill="#434A54" points="11.0016901 11.0401669 0.175774648 4.81544079 0.175774648 11.0401669 0.175774648 17.2648931"></polygon>
            </g>
        </g>
    </g>
</svg>