<?xml version="1.0" encoding="UTF-8"?>
<svg width="35px" height="24px" viewBox="0 0 35 24" version="1.1" xmlns="http://www.w3.org/2000/svg" xmlns:xlink="http://www.w3.org/1999/xlink">
    <!-- Generator: Sketch 50.2 (55047) - http://www.bohemiancoding.com/sketch -->
    <title>USA@2x</title>
    <desc>Created with Sketch.</desc>
    <defs></defs>
    <g id="FInalll" stroke="none" stroke-width="1" fill="none" fill-rule="evenodd">
        <g id="Group-2-Copy" transform="translate(0.000000, -448.000000)" fill-rule="nonzero">
            <g id="USA@2x" transform="translate(0.000000, 448.000000)">
                <path d="M3.45070423,23.805 L31.9288732,23.805 C33.063773,23.7129754 34.0700006,23.029418 34.5859155,22 L0.788732394,22 C1.30554662,23.0308568 2.31399609,23.7146549 3.45070423,23.805 Z" id="Shape" fill="#ED5565"></path>
                <path d="M0.448591549,20.19 L0.448591549,20.86 C0.491796489,21.2557693 0.605369337,21.6403184 0.783802817,21.995 L34.5760563,21.995 C34.7544898,21.6403184 34.8680627,21.2557693 34.9112676,20.86 L34.9112676,20.19 L0.448591549,20.19 Z" id="Shape" fill="#FFFFFF"></path>
                <rect id="Rectangle-path" fill="#ED5565" x="0.448591549" y="18.385" width="34.4676056" height="1.805"></rect>
                <rect id="Rectangle-path" fill="#FFFFFF" x="0.448591549" y="16.58" width="34.4676056" height="1.805"></rect>
                <rect id="Rectangle-path" fill="#ED5565" x="0.448591549" y="14.775" width="34.4676056" height="1.805"></rect>
                <rect id="Rectangle-path" fill="#FFFFFF" x="0.448591549" y="12.97" width="34.4676056" height="1.805"></rect>
                <rect id="Rectangle-path" fill="#ED5565" x="0.448591549" y="11.165" width="34.4676056" height="1.805"></rect>
                <rect id="Rectangle-path" fill="#FFFFFF" x="0.448591549" y="9.36" width="34.4676056" height="1.805"></rect>
                <rect id="Rectangle-path" fill="#ED5565" x="0.448591549" y="7.555" width="34.4676056" height="1.805"></rect>
                <rect id="Rectangle-path" fill="#FFFFFF" x="0.448591549" y="5.745" width="34.4676056" height="1.805"></rect>
                <rect id="Rectangle-path" fill="#ED5565" x="0.448591549" y="3.94" width="34.4676056" height="1.805"></rect>
                <path d="M34.9161972,3.94 L34.9161972,3.27 C34.8735768,2.87251899 34.7599889,2.48622443 34.5809859,2.13 L0.788732394,2.13 C0.609729454,2.48622443 0.49614148,2.87251899 0.453521127,3.27 L0.453521127,3.94 L34.9161972,3.94 Z" id="Shape" fill="#FFFFFF"></path>
                <path d="M31.9239437,0.33 L3.45070423,0.33 C2.3158045,0.422024631 1.30957688,1.10558201 0.793661972,2.135 L34.5859155,2.135 C34.0691013,1.10414317 33.0606518,0.420345068 31.9239437,0.33 Z" id="Shape" fill="#ED5565"></path>
                <path d="M16.8049296,12.97 L16.8049296,0.33 L3.45070423,0.33 C1.88615248,0.457041892 0.63072941,1.69263938 0.458450704,3.275 L0.458450704,12.97 L16.8049296,12.97 Z" id="Shape" fill="#4A89DC"></path>
                <polygon id="Shape" fill="#FFFFFF" points="2.47464789 1.86 2.3415493 2.28 1.90774648 2.28 2.25774648 2.535 2.12464789 2.955 2.47464789 2.695 2.82464789 2.955 2.6915493 2.535 3.0415493 2.28 2.60774648 2.28"></polygon>
                <polygon id="Shape" fill="#FFFFFF" points="2.47464789 3.98 2.3415493 4.4 1.90774648 4.4 2.25774648 4.66 2.12464789 5.075 2.47464789 4.82 2.82464789 5.075 2.6915493 4.66 3.0415493 4.4 2.60774648 4.4"></polygon>
                <polygon id="Shape" fill="#FFFFFF" points="2.47464789 6.1 2.3415493 6.52 1.90774648 6.52 2.25774648 6.78 2.12464789 7.2 2.47464789 6.94 2.82464789 7.2 2.6915493 6.78 3.0415493 6.52 2.60774648 6.52"></polygon>
                <polygon id="Shape" fill="#FFFFFF" points="2.47464789 8.225 2.3415493 8.64 1.90774648 8.64 2.25774648 8.9 2.12464789 9.32 2.47464789 9.06 2.82464789 9.32 2.6915493 8.9 3.0415493 8.64 2.60774648 8.64"></polygon>
                <polygon id="Shape" fill="#FFFFFF" points="2.60774648 10.76 2.47464789 10.345 2.3415493 10.76 1.90774648 10.76 2.25774648 11.02 2.12464789 11.44 2.47464789 11.18 2.82464789 11.44 2.6915493 11.02 3.0415493 10.76"></polygon>
                <polygon id="Shape" fill="#FFFFFF" points="3.70211268 2.92 3.56901408 3.34 3.13521127 3.34 3.48521127 3.6 3.35211268 4.015 3.70211268 3.755 4.05704225 4.015 3.92394366 3.6 4.27394366 3.34 3.84014085 3.34"></polygon>
                <polygon id="Shape" fill="#FFFFFF" points="3.70211268 5.04 3.56901408 5.46 3.13521127 5.46 3.48521127 5.72 3.35211268 6.135 3.70211268 5.88 4.05704225 6.135 3.92394366 5.72 4.27394366 5.46 3.84014085 5.46"></polygon>
                <polygon id="Shape" fill="#FFFFFF" points="3.70211268 7.165 3.56901408 7.58 3.13521127 7.58 3.48521127 7.84 3.35211268 8.26 3.70211268 8 4.05704225 8.26 3.92394366 7.84 4.27394366 7.58 3.84014085 7.58"></polygon>
                <polygon id="Shape" fill="#FFFFFF" points="3.84014085 9.7 3.70211268 9.285 3.56901408 9.7 3.13521127 9.7 3.48521127 9.96 3.35211268 10.38 3.70211268 10.12 4.05704225 10.38 3.92394366 9.96 4.27394366 9.7"></polygon>
                <polygon id="Shape" fill="#FFFFFF" points="4.93450704 1.86 4.80140845 2.28 4.36760563 2.28 4.71760563 2.535 4.58450704 2.955 4.93450704 2.695 5.28450704 2.955 5.15140845 2.535 5.50140845 2.28 5.06760563 2.28"></polygon>
                <polygon id="Shape" fill="#FFFFFF" points="4.93450704 3.98 4.80140845 4.4 4.36760563 4.4 4.71760563 4.66 4.58450704 5.075 4.93450704 4.82 5.28450704 5.075 5.15140845 4.66 5.50140845 4.4 5.06760563 4.4"></polygon>
                <polygon id="Shape" fill="#FFFFFF" points="4.93450704 6.1 4.80140845 6.52 4.36760563 6.52 4.71760563 6.78 4.58450704 7.2 4.93450704 6.94 5.28450704 7.2 5.15140845 6.78 5.50140845 6.52 5.06760563 6.52"></polygon>
                <polygon id="Shape" fill="#FFFFFF" points="4.93450704 8.225 4.80140845 8.64 4.36760563 8.64 4.71760563 8.9 4.58450704 9.32 4.93450704 9.06 5.28450704 9.32 5.15140845 8.9 5.50140845 8.64 5.06760563 8.64"></polygon>
                <polygon id="Shape" fill="#FFFFFF" points="5.06760563 10.76 4.93450704 10.345 4.80140845 10.76 4.36760563 10.76 4.71760563 11.02 4.58450704 11.44 4.93450704 11.18 5.28450704 11.44 5.15140845 11.02 5.50140845 10.76"></polygon>
                <polygon id="Shape" fill="#FFFFFF" points="6.16197183 2.92 6.02887324 3.34 5.59507042 3.34 5.94507042 3.6 5.81197183 4.015 6.16197183 3.755 6.51690141 4.015 6.38380282 3.6 6.73380282 3.34 6.3 3.34"></polygon>
                <polygon id="Shape" fill="#FFFFFF" points="6.16197183 5.04 6.02887324 5.46 5.59507042 5.46 5.94507042 5.72 5.81197183 6.135 6.16197183 5.88 6.51690141 6.135 6.38380282 5.72 6.73380282 5.46 6.3 5.46"></polygon>
                <polygon id="Shape" fill="#FFFFFF" points="6.16197183 7.165 6.02887324 7.58 5.59507042 7.58 5.94507042 7.84 5.81197183 8.26 6.16197183 8 6.51690141 8.26 6.38380282 7.84 6.73380282 7.58 6.3 7.58"></polygon>
                <polygon id="Shape" fill="#FFFFFF" points="6.3 9.7 6.16197183 9.285 6.02887324 9.7 5.59507042 9.7 5.94507042 9.96 5.81197183 10.38 6.16197183 10.12 6.51690141 10.38 6.38380282 9.96 6.73380282 9.7"></polygon>
                <polygon id="Shape" fill="#FFFFFF" points="7.3943662 1.86 7.26126761 2.28 6.82746479 2.28 7.17746479 2.535 7.0443662 2.955 7.3943662 2.695 7.7443662 2.955 7.61126761 2.535 7.96126761 2.28 7.52746479 2.28"></polygon>
                <polygon id="Shape" fill="#FFFFFF" points="7.3943662 3.98 7.26126761 4.4 6.82746479 4.4 7.17746479 4.66 7.0443662 5.075 7.3943662 4.82 7.7443662 5.075 7.61126761 4.66 7.96126761 4.4 7.52746479 4.4"></polygon>
                <polygon id="Shape" fill="#FFFFFF" points="7.3943662 6.1 7.26126761 6.52 6.82746479 6.52 7.17746479 6.78 7.0443662 7.2 7.3943662 6.94 7.7443662 7.2 7.61126761 6.78 7.96126761 6.52 7.52746479 6.52"></polygon>
                <polygon id="Shape" fill="#FFFFFF" points="7.3943662 8.225 7.26126761 8.64 6.82746479 8.64 7.17746479 8.9 7.0443662 9.32 7.3943662 9.06 7.7443662 9.32 7.61126761 8.9 7.96126761 8.64 7.52746479 8.64"></polygon>
                <polygon id="Shape" fill="#FFFFFF" points="7.52746479 10.76 7.3943662 10.345 7.26126761 10.76 6.82746479 10.76 7.17746479 11.02 7.0443662 11.44 7.3943662 11.18 7.7443662 11.44 7.61126761 11.02 7.96126761 10.76"></polygon>
                <polygon id="Shape" fill="#FFFFFF" points="8.62183099 2.92 8.48873239 3.34 8.05492958 3.34 8.40492958 3.6 8.27183099 4.015 8.62183099 3.755 8.97676056 4.015 8.83873239 3.6 9.19366197 3.34 8.75985915 3.34"></polygon>
                <polygon id="Shape" fill="#FFFFFF" points="8.62183099 5.04 8.48873239 5.46 8.05492958 5.46 8.40492958 5.72 8.27183099 6.135 8.62183099 5.88 8.97676056 6.135 8.83873239 5.72 9.19366197 5.46 8.75985915 5.46"></polygon>
                <polygon id="Shape" fill="#FFFFFF" points="8.62183099 7.165 8.48873239 7.58 8.05492958 7.58 8.40492958 7.84 8.27183099 8.26 8.62183099 8 8.97676056 8.26 8.83873239 7.84 9.19366197 7.58 8.75985915 7.58"></polygon>
                <polygon id="Shape" fill="#FFFFFF" points="8.75985915 9.7 8.62183099 9.285 8.48873239 9.7 8.05492958 9.7 8.40492958 9.96 8.27183099 10.38 8.62183099 10.12 8.97676056 10.38 8.83873239 9.96 9.19366197 9.7"></polygon>
                <polygon id="Shape" fill="#FFFFFF" points="9.85422535 1.86 9.72112676 2.28 9.28732394 2.28 9.63732394 2.535 9.50422535 2.955 9.85422535 2.695 10.2042254 2.955 10.0711268 2.535 10.4211268 2.28 9.98732394 2.28"></polygon>
                <polygon id="Shape" fill="#FFFFFF" points="9.85422535 3.98 9.72112676 4.4 9.28732394 4.4 9.63732394 4.66 9.50422535 5.075 9.85422535 4.82 10.2042254 5.075 10.0711268 4.66 10.4211268 4.4 9.98732394 4.4"></polygon>
                <polygon id="Shape" fill="#FFFFFF" points="9.85422535 6.1 9.72112676 6.52 9.28732394 6.52 9.63732394 6.78 9.50422535 7.2 9.85422535 6.94 10.2042254 7.2 10.0711268 6.78 10.4211268 6.52 9.98732394 6.52"></polygon>
                <polygon id="Shape" fill="#FFFFFF" points="9.85422535 8.225 9.72112676 8.64 9.28732394 8.64 9.63732394 8.9 9.50422535 9.32 9.85422535 9.06 10.2042254 9.32 10.0711268 8.9 10.4211268 8.64 9.98732394 8.64"></polygon>
                <polygon id="Shape" fill="#FFFFFF" points="9.98732394 10.76 9.85422535 10.345 9.72112676 10.76 9.28732394 10.76 9.63732394 11.02 9.50422535 11.44 9.85422535 11.18 10.2042254 11.44 10.0711268 11.02 10.4211268 10.76"></polygon>
                <polygon id="Shape" fill="#FFFFFF" points="11.0816901 2.92 10.9485915 3.34 10.5147887 3.34 10.8647887 3.6 10.7316901 4.015 11.0816901 3.755 11.4366197 4.015 11.2985915 3.6 11.6535211 3.34 11.2197183 3.34"></polygon>
                <polygon id="Shape" fill="#FFFFFF" points="11.0816901 5.04 10.9485915 5.46 10.5147887 5.46 10.8647887 5.72 10.7316901 6.135 11.0816901 5.88 11.4366197 6.135 11.2985915 5.72 11.6535211 5.46 11.2197183 5.46"></polygon>
                <polygon id="Shape" fill="#FFFFFF" points="11.0816901 7.165 10.9485915 7.58 10.5147887 7.58 10.8647887 7.84 10.7316901 8.26 11.0816901 8 11.4366197 8.26 11.2985915 7.84 11.6535211 7.58 11.2197183 7.58"></polygon>
                <polygon id="Shape" fill="#FFFFFF" points="11.2197183 9.7 11.0816901 9.285 10.9485915 9.7 10.5147887 9.7 10.8647887 9.96 10.7316901 10.38 11.0816901 10.12 11.4366197 10.38 11.2985915 9.96 11.6535211 9.7"></polygon>
                <polygon id="Shape" fill="#FFFFFF" points="12.3140845 1.86 12.1809859 2.28 11.7471831 2.28 12.0971831 2.535 11.9640845 2.955 12.3140845 2.695 12.6640845 2.955 12.5309859 2.535 12.8809859 2.28 12.4471831 2.28"></polygon>
                <polygon id="Shape" fill="#FFFFFF" points="12.3140845 3.98 12.1809859 4.4 11.7471831 4.4 12.0971831 4.66 11.9640845 5.075 12.3140845 4.82 12.6640845 5.075 12.5309859 4.66 12.8809859 4.4 12.4471831 4.4"></polygon>
                <polygon id="Shape" fill="#FFFFFF" points="12.3140845 6.1 12.1809859 6.52 11.7471831 6.52 12.0971831 6.78 11.9640845 7.2 12.3140845 6.94 12.6640845 7.2 12.5309859 6.78 12.8809859 6.52 12.4471831 6.52"></polygon>
                <polygon id="Shape" fill="#FFFFFF" points="12.3140845 8.225 12.1809859 8.64 11.7471831 8.64 12.0971831 8.9 11.9640845 9.32 12.3140845 9.06 12.6640845 9.32 12.5309859 8.9 12.8809859 8.64 12.4471831 8.64"></polygon>
                <polygon id="Shape" fill="#FFFFFF" points="12.4471831 10.76 12.3140845 10.345 12.1809859 10.76 11.7471831 10.76 12.0971831 11.02 11.9640845 11.44 12.3140845 11.18 12.6640845 11.44 12.5309859 11.02 12.8809859 10.76"></polygon>
                <polygon id="Shape" fill="#FFFFFF" points="13.5415493 2.92 13.4084507 3.34 12.9746479 3.34 13.3246479 3.6 13.1915493 4.015 13.5415493 3.755 13.8964789 4.015 13.7584507 3.6 14.1133803 3.34 13.6795775 3.34"></polygon>
                <polygon id="Shape" fill="#FFFFFF" points="13.5415493 5.04 13.4084507 5.46 12.9746479 5.46 13.3246479 5.72 13.1915493 6.135 13.5415493 5.88 13.8964789 6.135 13.7584507 5.72 14.1133803 5.46 13.6795775 5.46"></polygon>
                <polygon id="Shape" fill="#FFFFFF" points="13.5415493 7.165 13.4084507 7.58 12.9746479 7.58 13.3246479 7.84 13.1915493 8.26 13.5415493 8 13.8964789 8.26 13.7584507 7.84 14.1133803 7.58 13.6795775 7.58"></polygon>
                <polygon id="Shape" fill="#FFFFFF" points="13.6795775 9.7 13.5415493 9.285 13.4084507 9.7 12.9746479 9.7 13.3246479 9.96 13.1915493 10.38 13.5415493 10.12 13.8964789 10.38 13.7584507 9.96 14.1133803 9.7"></polygon>
                <polygon id="Shape" fill="#FFFFFF" points="14.5570423 2.535 14.4239437 2.955 14.7739437 2.695 15.1239437 2.955 14.9908451 2.535 15.3408451 2.28 14.9070423 2.28 14.7739437 1.86 14.6408451 2.28 14.2070423 2.28"></polygon>
                <polygon id="Shape" fill="#FFFFFF" points="14.7739437 3.98 14.6408451 4.4 14.2070423 4.4 14.5570423 4.66 14.4239437 5.075 14.7739437 4.82 15.1239437 5.075 14.9908451 4.66 15.3408451 4.4 14.9070423 4.4"></polygon>
                <polygon id="Shape" fill="#FFFFFF" points="14.7739437 6.1 14.6408451 6.52 14.2070423 6.52 14.5570423 6.78 14.4239437 7.2 14.7739437 6.94 15.1239437 7.2 14.9908451 6.78 15.3408451 6.52 14.9070423 6.52"></polygon>
                <polygon id="Shape" fill="#FFFFFF" points="14.7739437 8.225 14.6408451 8.64 14.2070423 8.64 14.5570423 8.9 14.4239437 9.32 14.7739437 9.06 15.1239437 9.32 14.9908451 8.9 15.3408451 8.64 14.9070423 8.64"></polygon>
                <polygon id="Shape" fill="#FFFFFF" points="14.9070423 10.76 14.7739437 10.345 14.6408451 10.76 14.2070423 10.76 14.5570423 11.02 14.4239437 11.44 14.7739437 11.18 15.1239437 11.44 14.9908451 11.02 15.3408451 10.76"></polygon>
            </g>
        </g>
    </g>
</svg>