<?xml version="1.0" encoding="UTF-8"?>
<svg width="32px" height="22px" viewBox="0 0 32 22" version="1.1" xmlns="http://www.w3.org/2000/svg" xmlns:xlink="http://www.w3.org/1999/xlink">
    <!-- Generator: Sketch 50.2 (55047) - http://www.bohemiancoding.com/sketch -->
    <title>Zimbabwe@2x</title>
    <desc>Created with Sketch.</desc>
    <defs></defs>
    <g id="FInalll" stroke="none" stroke-width="1" fill="none" fill-rule="evenodd">
        <g id="Artboard" transform="translate(-68.000000, -104.000000)" fill-rule="nonzero">
            <g id="Zimbabwe@2x" transform="translate(68.000000, 104.000000)">
                <path d="M0.667310647,20.255 C0.632310647,20.18 0.602310647,20.1 0.572310647,20.02 C0.602310647,20.1 0.637310647,20.175 0.667310647,20.255 Z" id="Shape" fill="#52C162"></path>
                <path d="M0.556195752,19.9644681 C0.556195752,19.8894681 0.511195752,19.8094681 0.491195752,19.7344681 C0.511195752,19.8094681 0.531195752,19.8894681 0.556195752,19.9644681 Z" id="Shape" fill="#52C162"></path>
                <path d="M0.45458724,19.6748936 C0.45458724,19.5948936 0.42458724,19.5148936 0.41458724,19.4348936 C0.45458724,19.5048936 0.45458724,19.5848936 0.45458724,19.6748936 Z" id="Shape" fill="#52C162"></path>
                <path d="M0.424046818,19.3582979 C0.418012289,19.2450449 0.418012289,19.1315509 0.424046818,19.0182979 C0.418049881,19.1315519 0.418049881,19.2450439 0.424046818,19.3582979 Z" id="Shape" fill="#52C162"></path>
                <path d="M1.17288512,21.0370213 C1.10288512,20.9620213 1.03788512,20.8820213 0.97788512,20.7970213 C1.03788512,20.8803546 1.10288512,20.9603546 1.17288512,21.0370213 Z" id="Shape" fill="#52C162"></path>
                <path d="M0.809970223,20.5314894 C0.764970223,20.4564894 0.724970223,20.3764894 0.684970223,20.2914894 C0.724970223,20.3714894 0.764970223,20.4514894 0.809970223,20.5314894 Z" id="Shape" fill="#52C162"></path>
                <path d="M31.9502558,19.0229787 L31.9502558,18.8497872 L4.08728942,18.8497872 L1.38345959,21.2417021 C1.31135747,21.1730496 1.24225959,21.1028369 1.17616597,21.0310638 C1.71475844,21.6450835 2.4764471,21.9965295 3.27614047,22 L29.0841962,22 C30.6670772,22 31.9502558,20.6671422 31.9502558,19.0229787 Z" id="Shape" fill="#52C162"></path>
                <path d="M0.980161714,20.793617 C0.925161714,20.718617 0.870161714,20.633617 0.820161714,20.553617 C0.880161714,20.6369504 0.933495049,20.7169504 0.980161714,20.793617 Z" id="Shape" fill="#52C162"></path>
                <polygon id="Shape" fill="#F6BB42" points="4.08728942 18.8497872 31.9502558 18.8497872 31.9502558 15.6948936 7.67437032 15.6948936"></polygon>
                <polygon id="Shape" fill="#ED5565" points="7.67437032 15.6948936 31.9502558 15.6948936 31.9502558 12.5446809 11.2659576 12.5446809"></polygon>
                <polygon id="Shape" fill="#434A54" points="13.023447 11 11.2659576 12.5446809 31.9502558 12.5446809 31.9502558 9.39446809 11.1983619 9.39446809"></polygon>
                <polygon id="Shape" fill="#ED5565" points="11.1983619 9.39446809 31.9502558 9.39446809 31.9502558 6.24425532 7.61128096 6.24425532"></polygon>
                <polygon id="Shape" fill="#F6BB42" points="7.61128096 6.24425532 31.9502558 6.24425532 31.9502558 3.09404255 4.01969367 3.09404255"></polygon>
                <path d="M0.57681703,1.995 C0.60681703,1.915 0.63681703,1.835 0.67181703,1.76 C0.63681703,1.84 0.60181703,1.915 0.57681703,1.995 Z" id="Shape" fill="#52C162"></path>
                <path d="M0.491195752,2.28021277 C0.491195752,2.20021277 0.531195752,2.12521277 0.556195752,2.05021277 C0.531195752,2.12521277 0.511195752,2.20521277 0.491195752,2.28021277 Z" id="Shape" fill="#52C162"></path>
                <path d="M0.406021286,2.9987234 C0.399986756,2.8854704 0.399986756,2.77197641 0.406021286,2.6587234 C0.400024349,2.77197741 0.400024349,2.8854694 0.406021286,2.9987234 Z" id="Shape" fill="#52C162"></path>
                <path d="M0.450638304,2.59446809 C0.450638304,2.51446809 0.450638304,2.43446809 0.490638304,2.35446809 C0.450638304,2.42946809 0.450638304,2.50946809 0.450638304,2.59446809 Z" id="Shape" fill="#52C162"></path>
                <path d="M0.820161714,1.46170213 C0.870161714,1.38170213 0.925161714,1.29670213 0.980161714,1.22170213 C0.933495049,1.29836879 0.880161714,1.37836879 0.820161714,1.46170213 Z" id="Shape" fill="#52C162"></path>
                <path d="M0.684970223,1.72382979 C0.724970223,1.64382979 0.764970223,1.56382979 0.809970223,1.48382979 C0.764970223,1.56382979 0.724970223,1.63882979 0.684970223,1.72382979 Z" id="Shape" fill="#52C162"></path>
                <path d="M4.01969367,3.09404255 L31.9592685,3.09404255 L31.9592685,2.97702128 C31.9592723,2.18584145 31.6560764,1.42720224 31.1166351,0.868632558 C30.5771938,0.310062876 29.8458828,-0.0024879869 29.0841962,-4.34458445e-16 L3.27614047,-4.34458445e-16 C2.46947443,-0.000590596029 1.70015888,0.353053737 1.15814044,0.973617021 C1.22423406,0.898723404 1.29333193,0.828510638 1.36543406,0.762978723 L4.01969367,3.09404255 Z" id="Shape" fill="#52C162"></path>
                <path d="M0.97788512,1.21829787 C1.03788512,1.13829787 1.10288512,1.05829787 1.17288512,0.978297872 C1.10288512,1.05496454 1.03788512,1.13496454 0.97788512,1.21829787 Z" id="Shape" fill="#52C162"></path>
                <path d="M4.08728942,18.8497872 L0.405574474,18.8497872 L0.405574474,19.0229787 C0.400135694,19.1290028 0.400135694,19.2352525 0.405574474,19.3412766 C0.405574474,19.3693617 0.405574474,19.3974468 0.405574474,19.4255319 C0.405574474,19.453617 0.405574474,19.5753191 0.441625538,19.6502128 C0.477676603,19.7251064 0.441625538,19.706383 0.441625538,19.7344681 C0.441625538,19.7625532 0.477676603,19.8795745 0.500208518,19.9497872 L0.527246816,20.02 C0.554285114,20.0948936 0.581323413,20.1697872 0.612868094,20.24 L0.635400009,20.2914894 C0.671451074,20.366383 0.707502138,20.4412766 0.748059585,20.5161702 L0.748059585,20.553617 C0.793123416,20.6285106 0.842693629,20.7080851 0.892263843,20.7782979 C0.946340439,20.8531915 1.00492342,20.9280851 1.06801278,21.0029787 C1.1341064,21.0778723 1.20320427,21.1480851 1.2753064,21.213617 L4.08728942,18.8497872 Z" id="Shape" fill="#FFFFFF"></path>
                <polygon id="Shape" fill="#FFFFFF" points="7.67437032 15.6948936 0.405574474 15.6948936 0.405574474 18.8497872 4.08728942 18.8497872"></polygon>
                <polygon id="Shape" fill="#FFFFFF" points="11.2659576 12.5446809 0.405574474 12.5446809 0.405574474 15.6948936 7.67437032 15.6948936"></polygon>
                <polygon id="Shape" fill="#FFFFFF" points="13.023447 11 11.1983619 9.39446809 0.405574474 9.39446809 0.405574474 12.5446809 11.2659576 12.5446809"></polygon>
                <polygon id="Shape" fill="#FFFFFF" points="7.61128096 6.24425532 0.405574474 6.24425532 0.405574474 9.39446809 11.1983619 9.39446809"></polygon>
                <polygon id="Shape" fill="#FFFFFF" points="4.01969367 3.09404255 0.405574474 3.09404255 0.405574474 6.24425532 7.61128096 6.24425532"></polygon>
                <path d="M1.35191491,0.758297872 C1.27981278,0.826950356 1.21071491,0.897163122 1.14462129,0.96893617 C1.08153193,1.03914894 1.02294895,1.11404255 0.968872354,1.19361702 C0.919302141,1.26382979 0.869731927,1.34340426 0.824668097,1.41829787 L0.824668097,1.45574468 C0.78411065,1.52595745 0.748059585,1.60085106 0.712008521,1.68042553 L0.684970223,1.73191489 C0.653425541,1.80212766 0.626387243,1.87702128 0.599348945,1.95191489 L0.572310647,2.02212766 C0.572310647,2.09234043 0.531753199,2.16723404 0.513727667,2.23744681 C0.495702135,2.30765957 0.513727667,2.29361702 0.513727667,2.32170213 C0.513727667,2.34978723 0.486689369,2.47148936 0.477676603,2.54638298 C0.468663837,2.6212766 0.477676603,2.60255319 0.477676603,2.6306383 C0.472237822,2.73666239 0.472237822,2.84291208 0.477676603,2.94893617 L0.477676603,3.0612766 L4.08278304,3.0612766 L1.35191491,0.758297872 Z" id="Shape" fill="#FFFFFF"></path>
                <path d="M3.9340724,12.2451064 C3.87791361,11.9431409 3.9012669,11.6310286 4.00166814,11.3417021 L4.37569794,10.2697872 C4.46362778,10.0035075 4.42635964,9.70981599 4.27500753,9.47629666 C4.12365541,9.24277734 3.87570761,9.09641265 3.60510643,9.08085106 L3.91604686,8.69234043 C4.05022028,8.52495633 4.25885462,8.44258028 4.46619171,8.47512422 C4.6735288,8.50766817 4.84941482,8.65039911 4.92998305,8.85148936 L5.19135327,9.51148936 L7.282315,11.0468085 C7.32227531,11.0763852 7.34026032,11.1286929 7.32737883,11.1778723 L6.87674052,13.0970213 C6.86433008,13.1513905 6.8178713,13.1899965 6.76408095,13.1906383 L4.20445538,13.1906383 C4.14761291,13.1917385 4.09821269,13.1502936 4.08728942,13.0923404 L3.9340724,12.2451064 Z" id="Shape" fill="#F6BB42"></path>
            </g>
        </g>
    </g>
</svg>