<?xml version="1.0" encoding="UTF-8"?>
<svg width="15px" height="13px" viewBox="0 0 15 13" version="1.1" xmlns="http://www.w3.org/2000/svg" xmlns:xlink="http://www.w3.org/1999/xlink">
    <!-- Generator: Sketch 50.2 (55047) - http://www.bohemiancoding.com/sketch -->
    <defs></defs>
    <g id="FInalll" stroke="none" stroke-width="1" fill="none" fill-rule="evenodd">
        <g id="noun_538854_cc" transform="translate(1.000000, 1.000000)" fill="#3E3E74" fill-rule="nonzero" stroke="#3E3E74" stroke-width="1.1">
            <g id="Group">
                <g id="Shape">
                    <path d="M7.8317611,0 C4.78431346,0 2.31352182,2.47079164 2.31352182,5.51823928 C2.31352182,5.8541621 2.34663125,6.18180755 2.40457277,6.50117565 L0.488364176,4.58427728 L0,5.07264146 L2.75911964,7.8317611 L2.76118898,7.82969176 L3.00330173,8.07249429 L3.24541448,7.82969176 L3.24748382,7.8317611 L6.00660346,5.07264146 L5.51823928,4.58427728 L3.20402768,6.89917866 C3.07090016,6.45358084 3.00330173,5.99073852 3.00330173,5.51823928 C3.00330173,2.85568883 5.16921065,0.68977991 7.8317611,0.68977991 C10.4943116,0.68977991 12.6602205,2.85568883 12.6602205,5.51823928 C12.6602205,8.18078973 10.4943116,10.3466987 7.8317611,10.3466987 L7.8317611,11.0364786 C10.8792087,11.0364786 13.3500004,8.56568692 13.3500004,5.51823928 C13.3500004,2.47079164 10.8792087,0 7.8317611,0"></path>
                </g>
            </g>
        </g>
    </g>
</svg>
